{"glyphs":{"0":{"ha":865,"x_min":28,"x_max":838,"o":"m 433 -21 q 202 50 293 -21 q 69 233 111 121 q 28 476 28 346 q 69 721 28 607 q 202 906 111 835 q 433 978 293 978 q 665 906 574 978 q 797 721 756 835 q 838 476 838 607 q 797 234 838 347 q 665 50 756 121 q 433 -21 574 -21 m 285 476 q 320 263 285 361 q 433 164 356 164 q 545 263 510 164 q 581 476 581 363 q 545 692 581 590 q 433 793 510 793 q 320 692 356 793 q 285 476 285 592 z "},"1":{"ha":411,"x_min":14,"x_max":397,"o":"m 142 656 l 14 656 l 14 885 q 239 975 147 903 l 397 975 l 397 0 l 142 0 l 142 656 z "},"2":{"ha":728,"x_min":13,"x_max":714,"o":"m 360 800 q 281 765 311 800 q 258 667 251 729 l 15 667 q 110 900 13 814 q 378 986 207 986 q 628 905 542 986 q 714 672 714 824 q 649 449 714 547 q 443 260 585 351 l 367 210 l 713 210 l 713 0 l 33 0 l 33 203 l 144 279 q 394 490 318 399 q 469 669 469 581 q 439 765 469 731 q 360 800 408 800 z "},"3":{"ha":774,"x_min":13,"x_max":760,"o":"m 497 696 q 462 770 497 740 q 374 800 426 800 q 285 767 319 800 q 258 681 250 735 l 15 681 q 113 902 13 818 q 390 986 213 986 q 648 914 554 986 q 742 722 742 842 q 697 578 742 638 q 581 513 651 519 l 581 503 q 710 433 661 493 q 760 282 760 372 q 710 122 760 193 q 572 12 660 51 q 371 -28 483 -28 q 108 65 200 -28 q 15 329 15 157 l 256 329 q 288 217 256 265 q 382 168 319 168 q 469 204 435 168 q 501 297 503 240 q 456 383 500 357 q 314 410 411 410 l 314 611 q 449 628 401 611 q 497 696 497 646 z "},"4":{"ha":793,"x_min":14,"x_max":779,"o":"m 317 432 l 443 432 l 443 568 l 317 432 m 14 432 l 461 972 l 699 972 l 699 432 l 779 432 l 779 210 l 699 210 l 699 0 l 443 0 l 443 210 l 14 210 l 14 432 z "},"5":{"ha":750,"x_min":14,"x_max":736,"o":"m 736 335 q 636 69 736 167 q 360 -28 536 -28 q 109 53 203 -28 q 15 300 15 133 l 256 300 q 289 205 256 243 q 371 167 322 167 q 458 212 424 167 q 492 326 492 257 q 459 432 492 393 q 368 471 426 471 q 278 433 308 471 l 14 433 l 79 972 l 704 972 l 686 756 l 297 756 l 279 617 q 442 660 346 660 q 667 565 599 660 q 736 335 736 471 z "},"6":{"ha":761,"x_min":14,"x_max":747,"o":"m 386 206 q 465 242 436 206 q 494 335 494 278 q 464 428 494 393 q 382 464 433 464 q 301 428 331 464 q 271 336 271 393 q 303 241 271 276 q 386 206 335 206 m 614 761 q 424 716 515 761 q 286 578 333 671 q 481 649 364 649 q 676 567 606 649 q 747 343 747 485 q 650 78 747 176 q 389 -21 553 -21 q 115 92 215 -21 q 14 400 14 206 q 94 704 14 572 q 310 908 174 836 q 613 979 447 979 l 614 761 z "},"7":{"ha":636,"x_min":14,"x_max":622,"o":"m 108 0 q 231 408 108 215 q 549 739 354 600 l 14 739 l 14 975 l 622 975 l 622 740 q 444 365 507 535 q 381 0 381 194 l 108 0 z "},"8":{"ha":769,"x_min":14,"x_max":756,"o":"m 385 178 q 469 218 438 178 q 500 319 500 258 q 467 412 500 383 q 385 440 435 440 q 302 412 335 440 q 269 319 269 383 q 301 218 269 258 q 385 178 332 178 m 385 636 q 440 658 419 636 q 461 715 461 679 q 442 775 461 750 q 383 800 424 800 q 326 776 343 800 q 308 717 308 751 q 328 658 308 679 q 385 636 349 636 m 383 -21 q 114 76 214 -21 q 14 313 14 172 q 63 483 14 414 q 190 568 111 553 q 103 632 136 585 q 69 749 69 679 q 154 927 69 861 q 385 993 239 993 q 615 927 531 993 q 700 749 700 861 q 667 632 700 679 q 579 568 633 585 q 707 483 658 553 q 756 314 756 414 q 655 76 756 174 q 383 -21 554 -21 z "},"9":{"ha":761,"x_min":28,"x_max":761,"o":"m 390 753 q 300 717 333 753 q 267 624 267 681 q 301 530 267 565 q 393 494 336 494 q 484 530 450 494 q 518 622 518 565 q 482 717 518 682 q 390 753 446 753 m 161 197 q 363 249 268 197 q 500 406 458 300 q 411 335 465 360 q 290 310 357 310 q 98 392 168 310 q 28 615 28 475 q 125 881 28 782 q 386 979 222 979 q 660 866 560 979 q 761 558 761 753 q 681 254 761 386 q 465 51 601 122 q 163 -21 328 -21 l 161 197 z "},"\r":{"ha":347,"x_min":0,"x_max":0,"o":""}," ":{"ha":361,"x_min":0,"x_max":0,"o":""},"!":{"ha":333,"x_min":28,"x_max":306,"o":"m 206 307 l 129 307 l 51 972 l 283 972 l 206 307 m 28 122 q 69 220 28 182 q 169 258 111 258 q 267 220 229 258 q 306 122 306 182 q 266 24 306 63 q 169 -14 226 -14 q 69 24 111 -14 q 28 122 28 63 z "},"\"":{"ha":431,"x_min":28,"x_max":403,"o":"m 28 975 l 208 975 l 163 718 l 74 718 l 28 975 m 222 975 l 403 975 l 357 718 l 268 718 l 222 975 z "},"#":{"ha":1154,"x_min":28,"x_max":1126,"o":"m 518 449 l 625 449 l 639 497 l 532 497 l 518 449 m 136 0 l 199 219 l 28 219 l 69 449 l 264 449 l 278 497 l 97 497 l 139 726 l 343 726 l 414 972 l 668 972 l 597 726 l 704 726 l 775 972 l 1029 972 l 958 726 l 1126 726 l 1085 497 l 893 497 l 879 449 l 1057 449 l 1015 219 l 814 219 l 751 0 l 497 0 l 560 219 l 453 219 l 390 0 l 136 0 z "},"$":{"ha":776,"x_min":28,"x_max":749,"o":"m 493 294 q 385 407 493 379 l 310 426 q 307 428 308 426 q 174 473 231 447 q 72 555 117 499 q 28 706 28 611 q 96 891 28 818 q 289 985 164 964 l 289 1063 l 488 1063 l 488 985 q 729 664 729 942 l 488 664 q 481 756 506 722 q 397 789 456 789 q 326 770 353 789 q 299 719 299 751 q 325 669 299 689 q 404 636 351 649 l 471 619 q 683 511 618 583 q 749 313 749 439 q 681 96 749 179 q 488 -11 614 13 l 488 -147 l 289 -147 l 289 -11 q 92 103 156 13 q 28 338 28 194 l 274 338 q 301 235 268 271 q 392 199 333 199 q 467 225 442 199 q 493 294 493 251 z "},"%":{"ha":1211,"x_min":28,"x_max":1183,"o":"m 815 994 l 1076 994 l 371 -26 l 108 -26 l 815 994 m 261 993 q 428 928 361 993 q 494 756 494 864 q 428 582 494 647 q 261 517 361 517 q 94 582 161 517 q 28 756 28 647 q 94 928 28 864 q 261 993 161 993 m 203 756 q 219 689 203 714 q 261 664 235 664 q 303 689 286 664 q 319 756 319 714 q 303 821 319 796 q 261 846 286 846 q 219 822 235 846 q 203 756 203 797 m 950 476 q 1117 412 1050 476 q 1183 239 1183 347 q 1117 65 1183 131 q 950 0 1050 0 q 783 65 850 0 q 717 239 717 131 q 783 412 717 347 q 950 476 850 476 m 892 239 q 908 172 892 197 q 950 147 924 147 q 992 172 975 147 q 1008 239 1008 197 q 992 304 1008 279 q 950 329 975 329 q 908 305 924 329 q 892 239 892 281 z "},"&":{"ha":958,"x_min":28,"x_max":931,"o":"m 419 228 q 578 303 525 228 q 329 589 499 432 q 241 465 265 550 q 259 303 217 379 q 419 228 301 228 m 672 0 q 661 106 672 50 q 374 -17 546 -17 q 131 65 233 -17 q 28 286 28 147 q 74 442 28 374 q 184 552 119 510 q 304 611 249 594 q 153 740 242 668 l 153 975 l 761 975 l 761 739 l 226 739 q 626 503 453 639 q 611 649 625 569 l 794 582 q 806 493 806 544 q 789 347 806 418 q 931 0 931 176 l 672 0 z "},"'":{"ha":236,"x_min":28,"x_max":208,"o":"m 28 975 l 208 975 l 163 718 l 74 718 l 28 975 z "},"(":{"ha":371,"x_min":26,"x_max":343,"o":"m 28 504 q 68 762 28 638 q 181 964 108 886 q 343 1042 253 1042 l 343 790 q 162 703 226 790 q 97 500 97 617 q 161 308 97 385 q 343 231 225 231 l 343 -7 q 180 65 251 -7 q 68 253 108 136 q 28 504 28 371 z "},")":{"ha":371,"x_min":28,"x_max":343,"o":"m 343 504 q 303 253 343 371 q 191 65 263 136 q 28 -7 119 -7 l 28 231 q 210 308 146 231 q 274 500 274 385 q 209 703 274 617 q 28 790 144 790 l 28 1042 q 190 964 118 1042 q 303 762 263 886 q 343 504 343 638 z "},"*":{"ha":542,"x_min":28,"x_max":514,"o":"m 182 924 l 360 924 l 292 729 l 418 893 l 514 743 l 300 692 l 514 639 l 418 489 l 290 654 l 360 458 l 182 458 l 250 653 l 124 489 l 28 639 l 242 692 l 28 743 l 124 893 l 251 728 l 182 924 z "},"+":{"ha":638,"x_min":28,"x_max":610,"o":"m 28 478 l 219 478 l 219 642 l 414 642 l 414 478 l 610 478 l 610 283 l 414 283 l 414 89 l 219 89 l 219 283 l 28 283 l 28 478 z "},",":{"ha":333,"x_min":28,"x_max":306,"o":"m 306 111 q 257 -69 306 35 q 129 -262 208 -174 l 111 -229 q 169 -133 150 -179 q 201 -35 188 -87 q 208 -8 206 -15 q 169 -14 183 -14 q 69 24 111 -14 q 28 122 28 63 q 69 220 28 182 q 169 258 111 258 q 267 219 229 258 q 306 111 306 179 z "},"-":{"ha":528,"x_min":28,"x_max":500,"o":"m 28 478 l 500 478 l 500 283 l 28 283 l 28 478 z "},".":{"ha":333,"x_min":28,"x_max":306,"o":"m 28 122 q 69 220 28 182 q 169 258 111 258 q 267 220 229 258 q 306 122 306 182 q 266 24 306 63 q 169 -14 226 -14 q 69 24 111 -14 q 28 122 28 63 z "},"/":{"ha":704,"x_min":28,"x_max":676,"o":"m 431 994 l 676 994 l 275 -26 l 28 -26 l 431 994 z "},":":{"ha":333,"x_min":28,"x_max":306,"o":"m 28 567 q 69 665 28 626 q 169 703 111 703 q 267 665 229 703 q 306 567 306 626 q 266 469 306 507 q 169 431 226 431 q 69 469 111 431 q 28 567 28 507 m 306 111 q 257 -69 306 35 q 129 -262 208 -174 l 111 -229 q 169 -133 150 -179 q 201 -35 188 -87 q 208 -8 206 -15 q 169 -14 192 -14 q 69 24 111 -14 q 28 122 28 63 q 69 220 28 182 q 169 258 111 258 q 267 219 229 258 q 306 111 306 179 z "},";":{"ha":290,"x_min":28,"x_max":263,"o":"m 28 576 q 62 654 28 625 q 146 683 96 683 q 229 654 196 683 q 263 576 263 625 q 229 498 263 528 q 146 468 196 468 q 60 497 93 468 q 28 576 28 526 m 28 103 q 62 181 28 151 q 146 210 96 210 q 229 181 196 210 q 263 103 263 151 q 229 24 263 54 q 146 -6 196 -6 q 60 24 93 -6 q 28 103 28 53 z "},"<":{"ha":581,"x_min":28,"x_max":553,"o":"m 28 349 l 260 694 l 553 694 l 321 349 l 553 1 l 260 1 l 28 349 z "},"=":{"ha":628,"x_min":28,"x_max":600,"o":"m 28 611 l 600 611 l 600 449 l 28 449 l 28 611 m 28 400 l 600 400 l 600 222 l 28 222 l 28 400 z "},">":{"ha":581,"x_min":28,"x_max":553,"o":"m 28 1 l 260 349 l 28 694 l 321 694 l 553 349 l 321 1 l 28 1 z "},"?":{"ha":756,"x_min":26,"x_max":728,"o":"m 483 633 q 454 727 483 696 q 378 758 425 758 q 306 731 332 758 q 286 653 281 703 l 29 653 q 126 894 26 801 q 399 986 225 986 q 641 911 554 986 q 728 715 728 836 q 688 569 728 628 q 572 438 649 510 q 506 369 531 397 q 467 311 482 342 l 439 311 q 464 503 439 379 q 483 633 483 594 m 319 122 q 361 220 319 182 q 461 258 403 258 q 559 220 521 258 q 597 122 597 182 q 558 24 597 63 q 461 -14 518 -14 q 361 24 403 -14 q 319 122 319 63 z "},"@":{"ha":1179,"x_min":26,"x_max":1151,"o":"m 635 394 l 603 394 q 534 375 558 394 q 510 321 510 356 q 523 281 510 294 q 556 267 536 267 q 610 298 585 267 q 635 383 635 329 l 635 394 m 635 267 l 629 267 q 573 172 615 213 q 469 132 531 132 q 370 167 413 132 q 328 271 328 203 q 394 397 328 351 q 578 443 460 443 l 635 443 l 635 468 q 618 513 635 496 q 579 529 601 529 q 547 515 558 529 q 540 481 535 501 l 346 481 q 408 625 346 571 q 582 679 471 679 q 760 624 694 679 q 826 475 826 569 l 826 300 q 836 248 826 271 q 867 225 846 225 q 919 281 899 225 q 939 424 939 336 q 851 701 939 600 q 613 801 764 801 q 415 746 500 801 q 284 593 331 690 q 238 375 238 496 q 317 115 238 213 q 526 18 397 18 l 554 18 l 554 -181 l 524 -181 q 270 -111 383 -181 q 92 83 157 -42 q 28 371 28 208 q 102 685 28 544 q 310 906 176 825 q 614 986 443 986 q 888 922 765 986 q 1081 737 1010 857 q 1151 456 1151 617 q 1078 178 1151 293 q 856 63 1006 63 q 697 112 760 63 q 635 250 635 161 l 635 267 z "},"A":{"ha":838,"x_min":14,"x_max":824,"o":"m 382 457 l 457 457 l 419 656 l 382 457 m 14 0 l 272 972 l 565 972 l 824 0 l 543 0 l 496 249 l 342 249 l 294 0 l 14 0 z "},"B":{"ha":804,"x_min":28,"x_max":776,"o":"m 285 201 l 376 201 q 510 308 506 201 q 376 410 510 410 l 285 410 l 285 201 m 285 604 l 397 604 q 466 626 439 604 q 493 693 493 647 q 397 771 493 771 l 285 771 l 285 604 m 28 0 l 28 972 l 460 972 q 685 908 608 972 q 761 735 761 843 q 706 574 761 640 q 563 500 650 507 l 563 493 q 717 426 658 488 q 776 271 776 364 q 671 74 776 149 q 393 0 565 0 l 28 0 z "},"C":{"ha":776,"x_min":28,"x_max":749,"o":"m 283 369 q 315 255 283 296 q 400 214 346 214 q 469 247 447 214 q 485 344 490 281 l 749 344 q 661 81 749 176 q 408 -14 574 -14 q 127 85 226 -14 q 28 367 28 185 l 28 592 q 127 873 28 774 q 408 972 226 972 q 661 877 574 972 q 749 614 749 782 l 485 614 q 469 711 490 678 q 400 744 447 744 q 315 703 346 744 q 283 589 283 663 l 283 369 z "},"D":{"ha":792,"x_min":28,"x_max":764,"o":"m 28 0 l 28 972 l 328 972 q 658 854 551 972 q 764 486 764 736 q 658 118 764 236 q 328 0 551 0 l 28 0 m 283 215 l 332 215 q 456 278 413 215 q 499 485 499 340 q 478 647 499 589 q 419 731 457 706 q 325 757 381 757 l 283 757 l 283 215 z "},"E":{"ha":668,"x_min":28,"x_max":640,"o":"m 28 972 l 640 972 l 640 760 l 283 760 l 283 593 l 586 593 l 586 385 l 283 385 l 283 213 l 626 213 l 626 0 l 28 0 l 28 972 z "},"F":{"ha":668,"x_min":28,"x_max":654,"o":"m 28 972 l 654 972 l 654 760 l 283 760 l 283 593 l 600 593 l 600 385 l 283 385 l 283 0 l 28 0 l 28 972 z "},"G":{"ha":776,"x_min":28,"x_max":749,"o":"m 283 369 q 316 255 283 296 q 399 214 349 214 q 471 248 444 214 q 503 336 497 282 l 503 346 l 404 346 l 404 508 l 749 508 l 749 0 l 503 0 l 503 167 q 304 -14 438 -14 q 100 85 172 -14 q 28 367 28 185 l 28 592 q 127 873 28 774 q 408 972 226 972 q 661 877 574 972 q 749 614 749 782 l 485 614 q 469 711 490 678 q 400 744 447 744 q 315 703 346 744 q 283 589 283 663 l 283 369 z "},"H":{"ha":828,"x_min":28,"x_max":800,"o":"m 28 972 l 282 972 l 282 565 l 546 565 l 546 972 l 800 972 l 800 0 l 546 0 l 546 357 l 282 357 l 282 0 l 28 0 l 28 972 z "},"I":{"ha":310,"x_min":28,"x_max":282,"o":"m 28 972 l 282 972 l 282 0 l 28 0 l 28 972 z "},"J":{"ha":429,"x_min":14,"x_max":401,"o":"m 401 238 q 326 42 401 97 q 99 -14 250 -14 q 14 -11 50 -14 l 14 211 q 57 210 57 210 q 127 219 108 210 q 146 253 146 229 l 146 972 l 401 972 l 401 238 z "},"K":{"ha":785,"x_min":28,"x_max":785,"o":"m 28 972 l 283 972 l 283 578 q 304 607 296 592 l 501 972 l 785 972 l 574 607 q 507 544 550 567 q 575 474 558 522 l 740 0 l 468 0 l 303 474 q 283 515 294 500 l 283 0 l 28 0 l 28 972 z "},"L":{"ha":654,"x_min":28,"x_max":626,"o":"m 283 972 l 283 213 l 626 213 l 626 0 l 28 0 l 28 972 l 283 972 z "},"M":{"ha":1003,"x_min":28,"x_max":975,"o":"m 283 972 l 504 338 l 719 972 l 975 972 l 975 0 l 719 0 l 719 424 l 581 0 l 426 0 l 283 436 l 283 0 l 28 0 l 28 972 l 283 972 z "},"N":{"ha":763,"x_min":28,"x_max":735,"o":"m 28 972 l 283 972 l 481 426 l 481 972 l 735 972 l 735 0 l 481 0 l 283 525 l 283 0 l 28 0 l 28 972 z "},"O":{"ha":800,"x_min":28,"x_max":772,"o":"m 28 592 q 124 873 28 774 q 394 972 219 972 q 674 871 576 972 q 772 581 772 769 l 772 390 q 674 101 772 203 q 396 0 576 0 q 124 99 219 0 q 28 382 28 199 l 28 592 m 283 388 q 313 272 283 313 q 399 232 343 232 q 486 274 456 232 q 517 392 517 315 l 517 581 q 486 699 517 657 q 399 740 456 740 q 313 700 343 740 q 283 585 283 660 l 283 388 z "},"P":{"ha":761,"x_min":28,"x_max":733,"o":"m 285 604 l 390 604 q 456 628 432 604 q 479 693 479 651 q 390 771 479 771 l 285 771 l 285 604 m 285 403 l 285 0 l 28 0 l 28 972 l 451 972 q 662 894 590 972 q 733 692 733 817 q 644 477 733 551 q 388 403 556 403 l 285 403 z "},"Q":{"ha":814,"x_min":28,"x_max":786,"o":"m 283 388 q 313 272 283 313 q 399 232 343 232 q 486 274 456 232 q 517 392 517 315 l 517 581 q 486 699 517 657 q 399 740 456 740 q 313 700 343 740 q 283 585 283 660 l 283 388 m 28 592 q 124 873 28 774 q 394 972 219 972 q 674 871 576 972 q 772 581 772 769 l 772 390 q 742 297 772 343 q 664 222 713 251 l 786 222 l 786 0 l 396 0 q 124 99 219 0 q 28 382 28 199 l 28 592 z "},"R":{"ha":763,"x_min":28,"x_max":735,"o":"m 285 604 l 383 604 q 453 628 428 604 q 479 694 479 651 q 383 771 479 771 l 285 771 l 285 604 m 475 0 l 410 342 q 354 403 401 385 l 285 403 l 285 0 l 28 0 l 28 972 l 446 972 q 661 895 588 972 q 735 692 735 818 q 546 426 735 492 q 668 342 656 413 l 733 0 l 475 0 z "},"S":{"ha":776,"x_min":28,"x_max":749,"o":"m 493 294 q 385 407 493 379 l 310 426 q 307 428 308 426 q 174 473 231 447 q 72 555 117 499 q 28 706 28 611 q 124 917 28 840 q 389 993 219 993 q 729 664 729 993 l 488 664 q 481 756 506 722 q 397 789 456 789 q 326 770 353 789 q 299 719 299 751 q 325 669 299 689 q 404 636 351 649 l 471 619 q 683 511 618 583 q 749 313 749 439 q 654 67 749 153 q 386 -19 560 -19 q 115 76 203 -19 q 28 338 28 171 l 274 338 q 301 235 268 271 q 392 199 333 199 q 467 225 442 199 q 493 294 493 251 z "},"T":{"ha":744,"x_min":14,"x_max":731,"o":"m 731 972 l 731 760 l 500 760 l 500 0 l 244 0 l 244 760 l 14 760 l 14 972 l 731 972 z "},"U":{"ha":738,"x_min":28,"x_max":710,"o":"m 367 188 q 426 218 406 188 q 447 303 447 249 l 447 972 l 703 972 l 708 321 q 618 71 710 163 q 372 -21 526 -21 q 122 72 217 -21 q 28 321 28 164 l 28 972 l 283 972 l 283 303 q 306 218 283 249 q 367 188 328 188 z "},"V":{"ha":851,"x_min":14,"x_max":838,"o":"m 579 0 l 286 0 l 14 972 l 294 972 l 431 276 l 557 972 l 838 972 l 579 0 z "},"W":{"ha":1285,"x_min":14,"x_max":1271,"o":"m 1040 0 l 747 0 l 646 401 l 551 0 l 258 0 l 14 972 l 294 972 l 403 299 l 501 972 l 783 972 l 892 299 l 990 972 l 1271 972 l 1040 0 z "},"X":{"ha":861,"x_min":14,"x_max":847,"o":"m 260 493 l 33 972 l 364 972 l 439 565 l 514 972 l 828 972 l 601 493 l 847 0 l 514 0 l 439 439 l 325 0 l 14 0 l 260 493 z "},"Y":{"ha":767,"x_min":14,"x_max":753,"o":"m 249 414 l 14 972 l 331 972 l 392 565 l 453 972 l 753 972 l 504 383 l 504 0 l 249 0 l 249 414 z "},"Z":{"ha":732,"x_min":14,"x_max":718,"o":"m 411 719 l 14 719 l 14 975 l 717 975 l 717 719 l 344 254 l 718 254 l 718 0 l 14 0 l 14 254 l 411 719 z "},"[":{"ha":357,"x_min":28,"x_max":329,"o":"m 28 1003 l 329 1003 l 329 894 l 276 894 l 276 82 l 329 82 l 329 -28 l 28 -28 l 28 1003 z "},"\\":{"ha":704,"x_min":28,"x_max":676,"o":"m 429 -26 l 28 994 l 274 994 l 676 -26 l 429 -26 z "},"]":{"ha":357,"x_min":28,"x_max":329,"o":"m 28 -28 l 28 82 l 81 82 l 81 894 l 28 894 l 28 1003 l 329 1003 l 329 -28 l 28 -28 z "},"^":{"ha":726,"x_min":28,"x_max":699,"o":"m 28 701 l 283 975 l 443 975 l 699 701 l 447 701 l 364 799 l 265 701 l 28 701 z "},"_":{"ha":669,"x_min":28,"x_max":642,"o":"m 28 197 l 642 197 l 642 0 l 28 0 l 28 197 z "},"`":{"ha":378,"x_min":28,"x_max":350,"o":"m 28 985 l 268 985 l 350 778 l 163 778 l 28 985 z "},"a":{"ha":699,"x_min":28,"x_max":671,"o":"m 393 307 q 271 243 276 307 q 310 210 271 210 q 376 240 344 210 q 414 307 408 269 l 393 307 m 357 514 q 310 496 328 514 q 297 449 292 478 l 51 449 q 124 642 43 569 q 350 714 204 714 q 583 640 496 714 q 671 442 671 567 l 671 0 l 415 0 l 415 151 l 408 151 q 338 37 390 88 q 210 -14 286 -14 q 83 33 138 -14 q 28 172 28 81 q 116 349 28 285 q 361 413 204 413 l 415 413 l 415 433 q 357 514 415 514 z "},"b":{"ha":722,"x_min":42,"x_max":694,"o":"m 297 306 q 318 232 297 260 q 371 204 339 204 q 421 233 403 204 q 439 310 439 261 l 439 378 q 419 454 439 426 q 367 482 400 482 q 317 456 336 482 q 297 381 297 431 l 297 306 m 297 182 l 297 0 l 42 0 l 42 972 l 297 972 l 297 504 l 304 504 q 374 652 319 597 q 508 707 429 707 q 647 626 600 707 q 694 385 694 546 l 694 297 q 646 61 694 143 q 506 -21 597 -21 q 374 34 428 -21 q 304 182 319 89 l 297 182 z "},"c":{"ha":707,"x_min":28,"x_max":679,"o":"m 28 347 q 112 620 28 526 q 357 714 196 714 q 596 631 513 714 q 679 411 679 547 l 429 411 q 414 485 435 457 q 356 514 393 514 q 285 408 285 514 l 285 285 q 356 179 285 179 q 414 208 393 179 q 429 282 435 236 l 679 282 q 596 63 679 146 q 357 -21 513 -21 q 112 73 196 -21 q 28 347 28 167 z "},"d":{"ha":722,"x_min":28,"x_max":681,"o":"m 425 381 q 406 456 425 431 q 356 482 386 482 q 303 454 322 482 q 283 378 283 426 l 283 310 q 302 233 283 261 q 353 204 321 204 q 405 232 385 204 q 425 306 425 260 l 425 381 m 425 182 l 418 182 q 349 34 403 89 q 217 -21 294 -21 q 76 61 125 -21 q 28 297 28 143 l 28 385 q 75 626 28 546 q 214 707 122 707 q 348 652 293 707 q 418 504 403 597 l 425 504 l 425 972 l 681 972 l 681 0 l 425 0 l 425 182 z "},"e":{"ha":733,"x_min":28,"x_max":715,"o":"m 432 447 q 365 514 415 514 q 299 447 315 514 l 432 447 m 292 338 l 292 285 q 313 205 292 231 q 367 179 335 179 q 422 209 403 179 q 436 282 442 239 l 700 282 q 615 63 700 146 q 374 -21 529 -21 q 118 76 208 -21 q 28 351 28 172 q 116 621 28 528 q 371 714 204 714 q 621 625 528 714 q 704 338 714 536 l 292 338 z "},"f":{"ha":504,"x_min":28,"x_max":497,"o":"m 110 735 q 185 931 110 875 q 413 986 261 986 q 497 983 461 986 l 497 761 q 454 763 454 763 q 384 753 403 763 q 365 719 365 743 l 365 693 l 482 693 l 482 476 l 365 476 l 365 0 l 110 0 l 110 476 l 28 476 l 28 693 l 110 693 l 110 735 z "},"g":{"ha":708,"x_min":28,"x_max":681,"o":"m 425 381 q 406 456 425 431 q 356 482 386 482 q 303 454 322 482 q 283 378 283 426 l 283 310 q 302 233 283 261 q 353 204 321 204 q 405 232 385 204 q 425 306 425 260 l 425 381 m 425 182 l 418 182 q 349 34 403 89 q 217 -21 294 -21 q 76 61 125 -21 q 28 297 28 143 l 28 385 q 75 626 28 546 q 214 707 122 707 q 348 652 293 707 q 418 504 403 597 l 425 504 l 425 693 l 681 693 l 679 -72 q 588 -255 679 -190 q 325 -319 496 -319 q 224 -317 274 -319 l 224 -94 q 294 -96 294 -96 q 396 -74 367 -96 q 425 0 425 -53 l 425 182 z "},"h":{"ha":701,"x_min":42,"x_max":674,"o":"m 297 504 q 369 651 313 596 q 508 707 426 707 q 630 653 586 707 q 674 490 674 599 l 674 0 l 418 0 l 418 381 q 403 455 418 428 q 361 482 389 482 q 316 456 335 482 q 297 381 297 429 l 297 0 l 42 0 l 42 972 l 297 972 l 297 504 z "},"i":{"ha":333,"x_min":28,"x_max":306,"o":"m 28 896 q 69 994 28 956 q 169 1032 111 1032 q 267 994 229 1032 q 306 896 306 956 q 266 798 306 836 q 169 760 226 760 q 69 798 111 760 q 28 896 28 836 m 294 0 l 39 0 l 39 693 l 294 693 l 294 0 z "},"j":{"ha":357,"x_min":-69,"x_max":329,"o":"m 51 896 q 93 994 51 956 q 193 1032 135 1032 q 291 994 253 1032 q 329 896 329 956 q 290 798 329 836 q 193 760 250 760 q 93 798 135 760 q 51 896 51 836 m 318 -103 q 237 -262 318 -206 q 10 -319 156 -319 q -69 -317 -33 -319 l -69 -94 q -26 -96 -26 -96 q 44 -86 25 -96 q 63 -53 63 -76 l 63 693 l 318 693 l 318 -103 z "},"k":{"ha":758,"x_min":42,"x_max":731,"o":"m 42 972 l 297 972 l 297 419 q 318 449 310 433 l 447 693 l 731 693 l 588 449 q 515 383 563 407 q 636 299 617 371 l 713 0 l 440 0 l 364 299 q 326 357 351 342 q 311 358 322 358 q 297 360 303 358 l 297 0 l 42 0 l 42 972 z "},"l":{"ha":339,"x_min":42,"x_max":297,"o":"m 297 0 l 42 0 l 42 972 l 297 972 l 297 0 z "},"m":{"ha":1078,"x_min":42,"x_max":1050,"o":"m 297 504 q 369 651 313 596 q 508 707 426 707 q 630 653 586 707 q 674 490 674 599 l 674 504 q 746 651 689 596 q 885 707 803 707 q 1006 653 963 707 q 1050 490 1050 599 l 1050 0 l 794 0 l 794 381 q 780 455 794 428 q 738 482 765 482 q 692 456 711 482 q 674 381 674 429 l 674 0 l 418 0 l 418 381 q 403 455 418 428 q 361 482 389 482 q 316 456 335 482 q 297 381 297 429 l 297 0 l 42 0 l 42 693 l 297 693 l 297 504 z "},"n":{"ha":701,"x_min":42,"x_max":674,"o":"m 297 504 q 369 651 313 596 q 508 707 426 707 q 630 653 586 707 q 674 490 674 599 l 674 0 l 418 0 l 418 381 q 403 455 418 428 q 361 482 389 482 q 316 456 335 482 q 297 381 297 429 l 297 0 l 42 0 l 42 693 l 297 693 l 297 504 z "},"o":{"ha":732,"x_min":28,"x_max":704,"o":"m 365 -21 q 119 73 211 -21 q 28 351 28 167 q 119 624 28 535 q 365 714 210 714 q 613 624 521 714 q 704 351 704 535 q 612 73 704 167 q 365 -21 519 -21 m 367 179 q 440 351 440 179 q 422 476 440 438 q 367 514 403 514 q 310 476 329 514 q 292 351 292 439 q 310 220 292 261 q 367 179 329 179 z "},"p":{"ha":722,"x_min":42,"x_max":694,"o":"m 297 306 q 318 232 297 260 q 371 204 339 204 q 421 233 403 204 q 439 310 439 261 l 439 378 q 419 454 439 426 q 367 482 400 482 q 317 456 336 482 q 297 381 297 431 l 297 306 m 297 182 l 297 -319 l 42 -319 l 42 693 l 297 693 l 297 504 l 304 504 q 374 652 319 597 q 508 707 429 707 q 647 626 600 707 q 694 385 694 546 l 694 297 q 646 61 694 143 q 506 -21 597 -21 q 374 34 428 -21 q 304 182 319 89 l 297 182 z "},"q":{"ha":722,"x_min":28,"x_max":681,"o":"m 425 381 q 406 456 425 431 q 356 482 386 482 q 303 454 322 482 q 283 378 283 426 l 283 310 q 302 233 283 261 q 353 204 321 204 q 405 232 385 204 q 425 306 425 260 l 425 381 m 425 182 l 418 182 q 349 34 403 89 q 217 -21 294 -21 q 76 61 125 -21 q 28 297 28 143 l 28 385 q 75 626 28 546 q 214 707 122 707 q 348 652 293 707 q 418 504 403 597 l 425 504 l 425 693 l 681 693 l 681 -319 l 425 -319 l 425 182 z "},"r":{"ha":681,"x_min":42,"x_max":660,"o":"m 404 422 q 400 461 413 440 q 361 482 388 482 q 316 456 335 482 q 297 381 297 429 l 297 0 l 42 0 l 42 693 l 297 693 l 297 504 q 367 651 313 596 q 496 707 422 707 q 615 639 572 707 q 646 422 658 571 l 404 422 z "},"s":{"ha":681,"x_min":28,"x_max":653,"o":"m 344 -21 q 111 47 194 -21 q 28 239 28 114 l 264 239 q 287 178 264 201 q 350 154 310 154 q 392 165 376 154 q 407 194 408 175 q 381 227 406 217 q 281 253 356 238 l 226 264 q 92 332 150 279 q 35 482 35 385 q 113 649 35 589 q 331 708 190 708 q 560 641 479 708 q 640 449 640 574 l 404 449 q 392 509 410 486 q 339 532 374 532 q 297 518 313 532 q 282 486 282 504 q 297 460 282 469 q 340 444 311 451 l 432 421 q 651 203 650 364 q 570 40 653 100 q 344 -21 488 -21 z "},"t":{"ha":525,"x_min":28,"x_max":497,"o":"m 365 874 l 365 693 l 482 693 l 482 476 l 365 476 l 365 267 q 384 233 365 243 q 454 224 403 224 q 497 225 454 224 l 497 3 q 413 0 461 0 q 185 56 261 0 q 110 251 110 111 l 110 476 l 28 476 l 28 693 l 110 693 l 110 874 l 365 874 z "},"u":{"ha":688,"x_min":28,"x_max":660,"o":"m 404 189 q 332 42 389 97 q 193 -14 275 -14 q 72 40 115 -14 q 28 203 28 94 l 28 693 l 283 693 l 283 313 q 298 238 283 265 q 340 211 313 211 q 385 238 367 211 q 404 313 404 264 l 404 693 l 660 693 l 660 0 l 404 0 l 404 189 z "},"v":{"ha":721,"x_min":14,"x_max":707,"o":"m 363 100 q 363 129 363 110 q 368 288 363 242 l 426 693 l 707 693 l 472 0 l 249 0 l 14 693 l 294 693 l 353 288 q 358 129 358 242 q 358 100 358 110 l 363 100 z "},"w":{"ha":1079,"x_min":14,"x_max":1065,"o":"m 349 100 q 354 288 349 235 l 399 693 l 681 693 l 725 288 q 731 100 731 235 l 735 100 q 740 288 735 235 l 785 693 l 1065 693 l 844 0 l 621 0 l 540 256 l 458 0 l 235 0 l 14 693 l 294 693 l 339 288 q 344 100 344 235 l 349 100 z "},"x":{"ha":731,"x_min":14,"x_max":717,"o":"m 189 351 l 28 693 l 313 693 l 367 403 l 419 693 l 703 693 l 542 351 l 717 0 l 419 0 l 367 313 l 285 0 l 14 0 l 189 351 z "},"y":{"ha":721,"x_min":14,"x_max":707,"o":"m 363 100 q 363 129 363 110 q 368 288 363 242 l 426 693 l 707 693 l 481 26 q 339 -240 421 -161 q 111 -319 257 -319 l 111 -40 l 118 -40 q 170 -73 135 -61 q 247 -85 206 -85 q 392 0 358 -85 l 249 0 l 14 693 l 294 693 l 353 288 q 358 129 358 242 q 358 100 358 110 l 363 100 z "},"z":{"ha":667,"x_min":28,"x_max":639,"o":"m 28 242 l 304 451 l 35 451 l 35 693 l 628 693 l 628 451 l 385 242 l 639 242 l 639 0 l 28 0 l 28 242 z "},"{":{"ha":417,"x_min":28,"x_max":389,"o":"m 92 486 q 240 444 193 486 q 298 344 288 403 q 308 193 308 286 q 308 183 308 186 q 322 48 308 85 q 389 11 335 11 l 389 -14 q 187 47 272 -12 q 101 218 101 106 q 106 286 101 239 q 101 420 113 374 q 28 475 89 467 l 28 511 q 101 566 89 519 q 106 700 113 613 q 101 768 101 747 q 187 940 101 881 q 389 1000 272 999 l 389 975 q 322 938 335 975 q 308 803 308 901 q 308 793 308 800 q 298 642 308 700 q 240 542 288 583 q 92 500 193 500 l 92 486 z "},"|":{"ha":254,"x_min":28,"x_max":226,"o":"m 28 1021 l 226 1021 l 226 -50 l 28 -50 l 28 1021 z "},"}":{"ha":417,"x_min":28,"x_max":389,"o":"m 325 500 q 176 542 224 500 q 119 642 129 583 q 108 793 108 700 q 108 803 108 800 q 95 938 108 901 q 28 975 82 975 l 28 1000 q 230 940 144 999 q 315 768 315 881 q 311 700 315 747 q 316 566 304 613 q 389 511 328 519 l 389 475 q 316 420 328 467 q 311 286 304 374 q 315 218 315 239 q 230 47 315 106 q 28 -14 144 -12 l 28 11 q 95 48 82 11 q 108 183 108 85 q 108 193 108 186 q 119 344 108 286 q 176 444 129 403 q 325 486 224 486 l 325 500 z "},"~":{"ha":461,"x_min":28,"x_max":433,"o":"m 28 797 q 67 862 49 843 q 129 881 86 881 q 226 857 163 881 q 321 833 289 833 q 344 844 336 833 q 358 875 351 854 q 364 890 363 886 l 433 800 q 397 749 418 765 q 338 732 375 732 q 240 756 303 732 q 146 778 179 778 q 119 762 126 778 q 107 718 111 746 q 104 704 106 708 l 28 797 z "},"¡":{"ha":290,"x_min":28,"x_max":263,"o":"m 28 854 q 60 933 28 904 q 146 963 93 963 q 229 933 196 963 q 263 854 263 903 q 229 776 263 806 q 146 747 196 747 q 62 776 96 747 q 28 854 28 806 m 263 96 q 231 13 263 43 q 157 -17 200 -17 q 69 24 107 -17 q 31 138 31 64 q 51 296 31 193 q 104 549 71 399 q 136 706 136 690 l 157 706 q 183 572 157 692 q 241 294 219 413 q 263 96 263 175 z "},"¢":{"ha":725,"x_min":28,"x_max":697,"o":"m 353 -14 q 123 84 218 -10 q 28 342 28 178 q 120 601 28 506 q 357 707 213 696 l 357 796 l 431 796 l 431 707 q 624 620 556 696 q 679 421 693 544 l 529 421 q 486 497 529 461 q 378 532 443 532 q 260 485 307 532 q 213 350 213 439 q 263 215 213 258 q 392 171 313 171 q 524 212 471 171 q 589 313 578 253 l 697 264 q 620 95 697 179 q 426 -8 543 11 l 426 -136 l 353 -136 l 353 -14 z "},"£":{"ha":724,"x_min":28,"x_max":715,"o":"m 28 135 q 38 135 31 135 q 141 150 103 132 q 179 240 179 168 l 179 467 l 58 467 l 58 622 l 179 622 l 179 785 q 252 926 179 872 q 446 979 325 979 q 647 913 581 979 q 689 738 714 846 l 513 738 q 497 831 511 794 q 456 868 483 868 q 418 842 432 868 q 404 778 404 817 l 404 622 l 658 622 l 658 467 l 404 467 l 404 236 q 332 135 404 176 l 688 135 l 688 0 l 28 0 l 28 135 z "},"¤":{"ha":726,"x_min":28,"x_max":699,"o":"m 363 199 q 444 251 414 199 q 474 392 474 303 q 444 533 474 481 q 363 586 414 586 q 281 534 311 586 q 250 392 250 482 q 281 251 250 303 q 363 199 311 199 m 28 71 l 114 174 q 55 274 75 217 q 35 392 35 331 q 106 601 35 517 l 28 694 l 126 772 l 204 676 q 363 710 279 710 q 521 675 443 710 l 601 772 l 699 696 l 619 600 q 689 392 689 514 q 611 175 689 261 l 699 71 l 601 -6 l 510 104 q 363 75 446 75 q 215 103 281 75 l 126 -6 l 28 71 z "},"¥":{"ha":822,"x_min":14,"x_max":753,"o":"m 249 167 l 125 167 l 125 344 l 249 344 l 249 393 l 125 393 l 125 556 l 189 556 l 14 972 l 331 972 l 392 565 l 453 972 l 753 972 l 576 556 l 697 556 l 697 393 l 508 393 l 504 383 l 504 344 l 697 344 l 697 167 l 504 167 l 504 0 l 249 0 l 249 167 z "},"¦":{"ha":185,"x_min":28,"x_max":157,"o":"m 28 975 l 157 975 l 157 475 l 28 475 l 28 975 m 28 276 l 157 276 l 157 -225 l 28 -225 l 28 276 z "},"§":{"ha":681,"x_min":21,"x_max":653,"o":"m 282 471 q 349 446 307 446 q 407 469 390 446 q 383 505 403 492 q 335 518 364 518 q 294 507 308 518 q 279 482 279 496 q 282 471 279 476 m 351 -21 q 108 52 189 -21 q 28 253 28 125 l 264 253 q 283 192 258 217 q 349 168 308 168 q 396 181 378 168 q 414 211 414 193 q 349 257 414 238 q 138 319 226 257 q 36 469 50 381 q 101 633 22 558 q 42 768 42 683 q 121 928 42 871 q 333 986 200 986 q 563 913 485 986 q 640 713 640 839 l 404 713 q 394 772 415 749 q 335 796 374 796 q 294 785 308 796 q 279 760 279 774 q 294 738 279 746 q 340 718 308 729 q 397 701 358 713 q 529 656 479 678 q 615 590 579 635 q 651 471 651 544 q 594 329 651 382 q 651 193 651 276 q 571 33 653 88 q 351 -21 489 -21 z "},"¨":{"ha":517,"x_min":28,"x_max":489,"o":"m 28 864 q 60 949 28 917 q 142 981 93 981 q 222 949 189 981 q 254 864 254 917 q 222 778 254 811 q 142 746 190 746 q 60 778 92 746 q 28 864 28 810 m 263 864 q 295 949 263 917 q 376 981 328 981 q 456 949 424 981 q 489 864 489 917 q 457 778 489 811 q 376 746 425 746 q 294 778 326 746 q 263 864 263 810 z "},"©":{"ha":844,"x_min":28,"x_max":817,"o":"m 424 278 q 646 360 560 278 q 732 578 732 443 q 644 794 732 710 q 424 879 556 879 q 201 796 288 879 q 114 578 114 713 q 200 359 114 440 q 424 278 286 278 m 367 533 q 424 454 367 456 q 468 521 475 454 l 600 521 q 556 386 600 435 q 429 338 513 338 q 288 388 338 338 q 238 532 238 439 l 238 647 q 288 791 238 740 q 429 842 338 842 q 556 793 513 842 q 600 658 600 744 l 468 658 q 424 725 475 725 q 382 704 397 725 q 367 646 367 683 l 367 533 m 424 196 q 219 242 308 196 q 78 376 129 289 q 28 578 28 463 q 78 778 28 690 q 219 913 129 865 q 424 961 310 961 q 626 913 536 961 q 766 777 715 864 q 817 578 817 690 q 766 377 817 464 q 626 243 715 290 q 424 196 538 196 z "},"ª":{"ha":496,"x_min":22,"x_max":418,"o":"m 265 597 l 240 597 q 167 538 169 597 q 177 506 167 517 q 201 494 188 494 q 246 519 226 494 q 265 588 265 544 l 265 597 m 222 704 q 196 693 206 704 q 192 665 186 682 l 36 665 q 85 781 36 738 q 224 824 135 824 q 366 780 314 824 q 418 661 418 736 l 418 396 l 265 396 l 265 496 l 261 496 q 217 420 250 453 q 133 388 183 388 q 56 415 89 388 q 22 497 22 443 q 74 599 22 563 q 221 635 126 635 l 265 635 l 265 656 q 253 691 265 678 q 222 704 240 704 z "},"«":{"ha":753,"x_min":28,"x_max":725,"o":"m 28 349 l 260 694 l 454 694 l 222 349 l 454 1 l 260 1 l 28 349 m 299 349 l 531 694 l 725 694 l 493 349 l 725 1 l 531 1 l 299 349 z "},"¬":{"ha":654,"x_min":28,"x_max":626,"o":"m 28 529 l 626 529 l 626 219 l 393 219 l 393 331 l 28 331 l 28 529 z "},"®":{"ha":675,"x_min":26,"x_max":647,"o":"m 339 451 q 513 517 444 451 q 581 688 581 583 q 512 858 581 792 q 339 925 443 925 q 163 859 232 925 q 94 688 94 793 q 163 515 94 579 q 339 451 231 451 m 310 736 l 344 736 q 378 768 375 736 q 344 794 378 794 l 310 794 l 310 736 m 339 388 q 115 469 201 388 q 28 688 28 551 q 115 906 28 822 q 339 989 203 989 q 560 905 474 989 q 647 688 647 821 q 561 470 647 553 q 339 388 475 388 m 376 526 l 354 646 q 335 667 351 660 l 310 667 l 310 526 l 221 526 l 221 864 l 367 864 q 444 837 418 864 q 471 767 471 810 q 401 675 471 696 q 443 646 439 671 l 467 526 l 376 526 z "},"¯":{"ha":571,"x_min":28,"x_max":543,"o":"m 28 543 l 543 543 l 543 336 l 28 336 l 28 543 z "},"°":{"ha":419,"x_min":28,"x_max":392,"o":"m 210 518 q 78 567 128 518 q 28 704 28 617 q 78 839 28 792 q 210 886 128 886 q 342 839 292 886 q 392 704 392 792 q 341 568 392 618 q 210 518 290 518 m 210 601 q 272 628 250 601 q 293 704 293 656 q 210 803 293 800 q 126 704 128 803 q 148 628 126 656 q 210 601 169 601 z "},"±":{"ha":624,"x_min":28,"x_max":596,"o":"m 240 433 l 28 433 l 28 561 l 240 561 l 240 732 l 383 732 l 383 561 l 596 561 l 596 433 l 383 433 l 383 157 l 240 157 l 240 433 m 596 139 l 596 11 l 28 11 l 28 139 l 596 139 z "},"²":{"ha":486,"x_min":13,"x_max":432,"o":"m 222 850 q 179 833 194 850 q 168 786 164 817 l 14 786 q 72 931 13 876 q 235 986 131 986 q 381 938 331 986 q 432 801 432 889 q 392 674 432 733 q 243 551 353 614 l 192 522 l 431 522 l 431 396 l 25 396 l 25 518 l 92 564 q 286 785 286 693 q 268 833 286 815 q 222 850 250 850 z "},"³":{"ha":486,"x_min":13,"x_max":460,"o":"m 294 801 q 277 837 294 824 q 233 850 260 850 q 182 831 201 850 q 168 779 163 811 l 14 779 q 73 929 13 872 q 243 986 133 986 q 393 943 338 986 q 449 829 449 900 q 422 743 449 779 q 353 703 394 707 l 353 697 q 431 654 401 690 q 460 564 460 618 q 394 432 460 483 q 231 381 329 381 q 69 442 125 381 q 14 618 14 503 l 167 618 q 185 550 167 579 q 240 521 203 521 q 287 538 268 521 q 306 586 306 556 q 210 658 300 658 l 210 750 q 294 801 292 750 z "},"´":{"ha":378,"x_min":28,"x_max":350,"o":"m 28 778 l 110 985 l 350 985 l 215 778 l 28 778 z "},"¶":{"ha":654,"x_min":28,"x_max":626,"o":"m 382 0 l 382 458 l 290 458 q 102 531 176 458 q 28 717 28 603 q 102 903 28 831 q 290 975 176 975 l 626 975 l 626 0 l 551 0 l 551 890 l 456 890 l 456 0 l 382 0 z "},"·":{"ha":301,"x_min":28,"x_max":274,"o":"m 28 550 q 64 626 28 599 q 151 653 100 653 q 237 625 200 653 q 274 550 274 597 q 237 475 274 503 q 151 447 200 447 q 64 474 100 447 q 28 550 28 501 z "},"¸":{"ha":368,"x_min":28,"x_max":340,"o":"m 44 -189 q 47 -189 44 -189 q 128 -161 128 -189 q 83 -137 128 -137 q 43 -142 68 -137 l 28 -96 l 176 47 l 314 49 l 217 -64 q 306 -90 271 -61 q 340 -171 340 -119 q 251 -293 340 -256 q 71 -331 163 -331 l 44 -331 l 44 -189 z "},"¹":{"ha":486,"x_min":14,"x_max":243,"o":"m 90 789 l 14 789 l 14 925 q 147 979 93 938 l 243 979 l 243 396 l 90 396 l 90 789 z "},"º":{"ha":522,"x_min":28,"x_max":526,"o":"m 278 375 q 89 463 150 375 q 28 675 28 550 q 89 889 28 800 q 278 978 150 978 q 465 889 404 978 q 526 675 526 800 q 465 463 526 551 q 278 375 404 375 m 186 675 q 208 530 186 597 q 278 463 231 463 q 347 530 325 463 q 368 675 368 597 q 347 821 368 753 q 278 889 325 889 q 208 821 231 889 q 186 675 186 753 z "},"»":{"ha":753,"x_min":28,"x_max":725,"o":"m 299 1 l 531 349 l 299 694 l 493 694 l 725 349 l 493 1 l 299 1 m 28 1 l 260 349 l 28 694 l 222 694 l 454 349 l 222 1 l 28 1 z "},"¼":{"ha":1103,"x_min":14,"x_max":1089,"o":"m 888 188 l 888 318 l 788 188 l 888 188 m 899 576 l 1040 576 l 1040 188 l 1089 188 l 1089 129 l 1040 129 l 1040 -6 l 888 -6 l 888 129 l 607 129 l 607 188 l 899 576 m 90 396 l 90 789 l 14 789 l 14 925 q 147 979 93 938 l 243 979 l 243 396 l 90 396 m 182 -26 l 668 994 l 872 994 l 388 -26 l 182 -26 z "},"½":{"ha":1149,"x_min":14,"x_max":1135,"o":"m 182 -26 l 668 994 l 872 994 l 388 -26 l 182 -26 m 925 454 q 882 438 897 454 q 871 390 867 421 l 717 390 q 774 535 715 481 q 938 590 833 590 q 1084 542 1033 590 q 1135 406 1135 493 q 1095 278 1135 338 q 946 156 1056 218 l 894 126 l 1133 126 l 1133 0 l 728 0 l 728 122 l 794 168 q 989 389 989 297 q 971 437 989 419 q 925 454 953 454 m 90 396 l 90 789 l 14 789 l 14 925 q 147 979 93 938 l 243 979 l 243 396 l 90 396 z "},"¾":{"ha":1201,"x_min":14,"x_max":1188,"o":"m 986 318 l 886 188 l 986 188 l 986 318 m 706 129 l 706 188 l 997 576 l 1139 576 l 1139 188 l 1188 188 l 1188 129 l 1139 129 l 1139 -6 l 986 -6 l 986 129 l 706 129 m 296 801 q 278 837 296 824 q 235 850 261 850 q 183 831 203 850 q 169 779 164 811 l 15 779 q 74 929 14 872 q 244 986 135 986 q 394 943 339 986 q 450 829 450 900 q 423 743 450 779 q 354 703 396 707 l 354 697 q 432 654 403 690 q 461 564 461 618 q 396 432 461 483 q 232 381 331 381 q 71 442 126 381 q 15 618 15 503 l 168 618 q 186 550 168 579 q 242 521 204 521 q 288 538 269 521 q 307 586 307 556 q 211 658 300 658 l 211 750 q 296 801 292 750 m 281 -26 l 767 994 l 971 994 l 486 -26 l 281 -26 z "},"¿":{"ha":744,"x_min":28,"x_max":717,"o":"m 551 864 q 517 786 551 815 q 433 757 483 757 q 350 786 383 757 q 317 864 317 815 q 350 942 317 913 q 433 972 383 972 q 519 943 486 972 q 551 864 551 914 m 444 725 q 420 649 444 685 q 346 557 396 613 q 254 439 286 490 q 222 325 222 388 q 270 197 222 250 q 389 143 318 143 q 510 199 461 143 q 554 354 558 256 l 715 293 q 618 69 715 158 q 358 -19 521 -19 q 116 63 204 -19 q 28 269 28 144 q 63 407 28 349 q 147 503 97 465 q 274 590 196 542 q 379 660 343 632 q 431 725 415 689 l 444 725 z "},"À":{"ha":865,"x_min":14,"x_max":824,"o":"m 382 457 l 457 457 l 419 656 l 382 457 m 14 0 l 272 972 l 565 972 l 824 0 l 543 0 l 496 249 l 342 249 l 294 0 l 14 0 m 342 1028 l 207 1235 l 447 1235 l 529 1028 l 342 1028 z "},"Á":{"ha":865,"x_min":14,"x_max":824,"o":"m 382 457 l 457 457 l 419 656 l 382 457 m 14 0 l 272 972 l 565 972 l 824 0 l 543 0 l 496 249 l 342 249 l 294 0 l 14 0 m 508 1028 l 321 1028 l 403 1235 l 643 1235 l 508 1028 z "},"Â":{"ha":865,"x_min":14,"x_max":824,"o":"m 382 457 l 457 457 l 419 656 l 382 457 m 14 0 l 272 972 l 565 972 l 824 0 l 543 0 l 496 249 l 342 249 l 294 0 l 14 0 m 600 997 l 450 997 l 425 1044 l 401 997 l 251 997 l 360 1210 l 492 1210 l 600 997 z "},"Ã":{"ha":865,"x_min":14,"x_max":824,"o":"m 382 457 l 457 457 l 419 656 l 382 457 m 14 0 l 272 972 l 565 972 l 824 0 l 543 0 l 496 249 l 342 249 l 294 0 l 14 0 m 583 1222 q 585 1077 606 1129 q 494 1025 564 1025 q 403 1046 460 1025 q 331 1064 356 1064 q 283 1019 283 1064 l 276 1019 q 265 1167 240 1111 q 367 1222 289 1222 q 450 1207 399 1222 q 525 1192 499 1192 q 575 1222 575 1192 l 583 1222 z "},"Ä":{"ha":865,"x_min":14,"x_max":824,"o":"m 382 457 l 457 457 l 419 656 l 382 457 m 14 0 l 272 972 l 565 972 l 824 0 l 543 0 l 496 249 l 342 249 l 294 0 l 14 0 m 194 1132 q 227 1217 194 1185 q 308 1249 260 1249 q 388 1217 356 1249 q 421 1132 421 1185 q 389 1047 421 1079 q 308 1014 357 1014 q 226 1046 258 1014 q 194 1132 194 1078 m 429 1132 q 462 1217 429 1185 q 543 1249 494 1249 q 623 1217 590 1249 q 656 1132 656 1185 q 624 1047 656 1079 q 543 1014 592 1014 q 461 1046 493 1014 q 429 1132 429 1078 z "},"Å":{"ha":865,"x_min":14,"x_max":824,"o":"m 382 457 l 457 457 l 419 656 l 382 457 m 376 1143 q 390 1110 376 1122 q 425 1097 404 1097 q 458 1110 444 1097 q 471 1143 471 1122 q 458 1178 471 1165 q 425 1192 444 1192 q 390 1178 404 1192 q 376 1143 376 1165 m 14 0 l 272 972 l 565 972 l 824 0 l 543 0 l 496 249 l 342 249 l 294 0 l 14 0 m 306 1143 q 340 1228 306 1196 q 425 1261 375 1261 q 508 1228 475 1261 q 542 1143 542 1196 q 508 1059 542 1090 q 425 1028 475 1028 q 340 1059 374 1028 q 306 1143 306 1090 z "},"Æ":{"ha":1242,"x_min":14,"x_max":1214,"o":"m 389 457 l 546 457 l 546 764 l 453 764 l 389 457 m 14 0 l 286 972 l 1214 972 l 1214 718 l 801 718 l 801 593 l 1160 593 l 1160 385 l 801 385 l 801 254 l 1200 254 l 1200 0 l 546 0 l 546 249 l 346 249 l 294 0 l 14 0 z "},"Ç":{"ha":776,"x_min":28,"x_max":749,"o":"m 283 369 q 315 255 283 296 q 400 214 346 214 q 469 247 447 214 q 485 344 490 281 l 749 344 q 678 101 749 193 q 471 -10 607 8 l 424 -64 q 513 -90 478 -61 q 547 -171 547 -119 q 458 -293 547 -256 q 278 -331 369 -331 l 251 -331 l 251 -189 q 254 -189 251 -189 q 335 -161 335 -189 q 290 -137 335 -137 q 250 -142 275 -137 l 235 -96 l 326 -8 q 105 110 182 14 q 28 367 28 207 l 28 592 q 127 873 28 774 q 408 972 226 972 q 661 877 574 972 q 749 614 749 782 l 485 614 q 469 711 490 678 q 400 744 447 744 q 315 703 346 744 q 283 589 283 663 l 283 369 z "},"È":{"ha":724,"x_min":28,"x_max":640,"o":"m 154 1235 l 394 1235 l 476 1028 l 289 1028 l 154 1235 m 28 972 l 640 972 l 640 760 l 283 760 l 283 593 l 586 593 l 586 385 l 283 385 l 283 213 l 626 213 l 626 0 l 28 0 l 28 972 z "},"É":{"ha":724,"x_min":28,"x_max":640,"o":"m 268 1028 l 350 1235 l 590 1235 l 456 1028 l 268 1028 m 28 972 l 640 972 l 640 760 l 283 760 l 283 593 l 586 593 l 586 385 l 283 385 l 283 213 l 626 213 l 626 0 l 28 0 l 28 972 z "},"Ê":{"ha":724,"x_min":28,"x_max":640,"o":"m 397 997 l 372 1044 l 349 997 l 199 997 l 307 1210 l 439 1210 l 547 997 l 397 997 m 28 972 l 640 972 l 640 760 l 283 760 l 283 593 l 586 593 l 586 385 l 283 385 l 283 213 l 626 213 l 626 0 l 28 0 l 28 972 z "},"Ë":{"ha":724,"x_min":28,"x_max":640,"o":"m 142 1132 q 174 1217 142 1185 q 256 1249 207 1249 q 335 1217 303 1249 q 368 1132 368 1185 q 336 1047 368 1079 q 256 1014 304 1014 q 174 1046 206 1014 q 142 1132 142 1078 m 376 1132 q 409 1217 376 1185 q 490 1249 442 1249 q 570 1217 538 1249 q 603 1132 603 1185 q 571 1047 603 1079 q 490 1014 539 1014 q 408 1046 440 1014 q 376 1132 376 1078 m 28 972 l 640 972 l 640 760 l 283 760 l 283 593 l 586 593 l 586 385 l 283 385 l 283 213 l 626 213 l 626 0 l 28 0 l 28 972 z "},"Ì":{"ha":310,"x_min":-61,"x_max":282,"o":"m -61 1235 l 179 1235 l 261 1028 l 74 1028 l -61 1235 m 28 972 l 282 972 l 282 0 l 28 0 l 28 972 z "},"Í":{"ha":310,"x_min":28,"x_max":375,"o":"m 53 1028 l 135 1235 l 375 1235 l 240 1028 l 53 1028 m 28 972 l 282 972 l 282 0 l 28 0 l 28 972 z "},"Î":{"ha":310,"x_min":-17,"x_max":332,"o":"m 182 997 l 157 1044 l 133 997 l -17 997 l 92 1210 l 224 1210 l 332 997 l 182 997 m 28 972 l 282 972 l 282 0 l 28 0 l 28 972 z "},"Ï":{"ha":310,"x_min":-74,"x_max":388,"o":"m -74 1132 q -41 1217 -74 1185 q 40 1249 -8 1249 q 120 1217 88 1249 q 153 1132 153 1185 q 121 1047 153 1079 q 40 1014 89 1014 q -42 1046 -10 1014 q -74 1132 -74 1078 m 161 1132 q 194 1217 161 1185 q 275 1249 226 1249 q 355 1217 322 1249 q 388 1132 388 1185 q 356 1047 388 1079 q 275 1014 324 1014 q 193 1046 225 1014 q 161 1132 161 1078 m 28 972 l 282 972 l 282 0 l 28 0 l 28 972 z "},"Ð":{"ha":792,"x_min":-42,"x_max":764,"o":"m 28 0 l 28 353 l -42 353 l -42 547 l 28 547 l 28 972 l 328 972 q 658 854 551 972 q 764 486 764 736 q 658 118 764 236 q 328 0 551 0 l 28 0 m 283 215 l 332 215 q 456 278 413 215 q 499 485 499 340 q 478 647 499 589 q 419 731 457 706 q 325 757 381 757 l 283 757 l 283 547 l 431 547 l 431 353 l 283 353 l 283 215 z "},"Ñ":{"ha":763,"x_min":28,"x_max":735,"o":"m 494 1221 q 496 1076 517 1128 q 406 1024 475 1024 q 314 1044 371 1024 q 242 1063 267 1063 q 194 1018 194 1063 l 188 1018 q 176 1165 151 1110 q 278 1221 200 1221 q 361 1206 310 1221 q 436 1190 410 1190 q 486 1221 486 1190 l 494 1221 m 28 972 l 283 972 l 481 426 l 481 972 l 735 972 l 735 0 l 481 0 l 283 525 l 283 0 l 28 0 l 28 972 z "},"Ò":{"ha":800,"x_min":28,"x_max":772,"o":"m 283 388 q 313 272 283 313 q 399 232 343 232 q 486 274 456 232 q 517 392 517 315 l 517 581 q 486 699 517 657 q 399 740 456 740 q 313 700 343 740 q 283 585 283 660 l 283 388 m 28 592 q 124 873 28 774 q 394 972 219 972 q 674 871 576 972 q 772 581 772 769 l 772 390 q 674 101 772 203 q 396 0 576 0 q 124 99 219 0 q 28 382 28 199 l 28 592 m 311 1028 l 176 1235 l 417 1235 l 499 1028 l 311 1028 z "},"Ó":{"ha":800,"x_min":28,"x_max":772,"o":"m 283 388 q 313 272 283 313 q 399 232 343 232 q 486 274 456 232 q 517 392 517 315 l 517 581 q 486 699 517 657 q 399 740 456 740 q 313 700 343 740 q 283 585 283 660 l 283 388 m 28 592 q 124 873 28 774 q 394 972 219 972 q 674 871 576 972 q 772 581 772 769 l 772 390 q 674 101 772 203 q 396 0 576 0 q 124 99 219 0 q 28 382 28 199 l 28 592 m 478 1028 l 290 1028 l 372 1235 l 613 1235 l 478 1028 z "},"Ô":{"ha":800,"x_min":28,"x_max":772,"o":"m 283 388 q 313 272 283 313 q 399 232 343 232 q 486 274 456 232 q 517 392 517 315 l 517 581 q 486 699 517 657 q 399 740 456 740 q 313 700 343 740 q 283 585 283 660 l 283 388 m 28 592 q 124 873 28 774 q 394 972 219 972 q 674 871 576 972 q 772 581 772 769 l 772 390 q 674 101 772 203 q 396 0 576 0 q 124 99 219 0 q 28 382 28 199 l 28 592 m 569 997 l 419 997 l 394 1044 l 371 997 l 221 997 l 329 1210 l 461 1210 l 569 997 z "},"Õ":{"ha":800,"x_min":28,"x_max":772,"o":"m 283 388 q 313 272 283 313 q 399 232 343 232 q 486 274 456 232 q 517 392 517 315 l 517 581 q 486 699 517 657 q 399 740 456 740 q 313 700 343 740 q 283 585 283 660 l 283 388 m 28 592 q 124 873 28 774 q 394 972 219 972 q 674 871 576 972 q 772 581 772 769 l 772 390 q 674 101 772 203 q 396 0 576 0 q 124 99 219 0 q 28 382 28 199 l 28 592 m 553 1222 q 554 1077 575 1129 q 464 1025 533 1025 q 372 1046 429 1025 q 300 1064 325 1064 q 253 1019 253 1064 l 246 1019 q 234 1167 210 1111 q 336 1222 258 1222 q 419 1207 368 1222 q 494 1192 468 1192 q 544 1222 544 1192 l 553 1222 z "},"Ö":{"ha":800,"x_min":28,"x_max":772,"o":"m 283 388 q 313 272 283 313 q 399 232 343 232 q 486 274 456 232 q 517 392 517 315 l 517 581 q 486 699 517 657 q 399 740 456 740 q 313 700 343 740 q 283 585 283 660 l 283 388 m 28 592 q 124 873 28 774 q 394 972 219 972 q 674 871 576 972 q 772 581 772 769 l 772 390 q 674 101 772 203 q 396 0 576 0 q 124 99 219 0 q 28 382 28 199 l 28 592 m 164 1132 q 197 1217 164 1185 q 278 1249 229 1249 q 358 1217 325 1249 q 390 1132 390 1185 q 358 1047 390 1079 q 278 1014 326 1014 q 196 1046 228 1014 q 164 1132 164 1078 m 399 1132 q 431 1217 399 1185 q 513 1249 464 1249 q 592 1217 560 1249 q 625 1132 625 1185 q 593 1047 625 1079 q 513 1014 561 1014 q 431 1046 463 1014 q 399 1132 399 1078 z "},"×":{"ha":706,"x_min":28,"x_max":678,"o":"m 678 632 l 447 319 l 678 6 l 489 6 l 353 190 l 217 6 l 28 6 l 258 319 l 28 632 l 218 632 l 353 449 l 488 632 l 678 632 z "},"Ø":{"ha":800,"x_min":28,"x_max":772,"o":"m 283 499 l 378 739 q 283 585 283 719 l 283 499 m 517 465 l 426 235 q 517 392 517 258 l 517 465 m 28 592 q 124 873 28 774 q 394 972 219 972 q 468 968 433 972 l 479 994 l 725 994 l 675 869 q 772 581 772 768 l 772 390 q 674 101 772 203 q 396 0 576 0 q 335 3 374 0 l 324 -26 l 76 -26 l 125 97 q 28 382 28 197 l 28 592 z "},"Ù":{"ha":751,"x_min":28,"x_max":710,"o":"m 122 1233 l 363 1233 l 444 1026 l 257 1026 l 122 1233 m 367 188 q 426 218 406 188 q 447 303 447 249 l 447 972 l 703 972 l 708 321 q 618 71 710 163 q 372 -21 526 -21 q 122 72 217 -21 q 28 321 28 164 l 28 972 l 283 972 l 283 303 q 306 218 283 249 q 367 188 328 188 z "},"Ú":{"ha":751,"x_min":28,"x_max":710,"o":"m 236 1026 l 318 1233 l 558 1233 l 424 1026 l 236 1026 m 367 188 q 426 218 406 188 q 447 303 447 249 l 447 972 l 703 972 l 708 321 q 618 71 710 163 q 372 -21 526 -21 q 122 72 217 -21 q 28 321 28 164 l 28 972 l 283 972 l 283 303 q 306 218 283 249 q 367 188 328 188 z "},"Û":{"ha":751,"x_min":28,"x_max":710,"o":"m 365 996 l 340 1043 l 317 996 l 167 996 l 275 1208 l 407 1208 l 515 996 l 365 996 m 367 188 q 426 218 406 188 q 447 303 447 249 l 447 972 l 703 972 l 708 321 q 618 71 710 163 q 372 -21 526 -21 q 122 72 217 -21 q 28 321 28 164 l 28 972 l 283 972 l 283 303 q 306 218 283 249 q 367 188 328 188 z "},"Ü":{"ha":751,"x_min":28,"x_max":710,"o":"m 110 1131 q 142 1215 110 1183 q 224 1247 175 1247 q 303 1215 271 1247 q 336 1131 336 1183 q 304 1045 336 1078 q 224 1013 272 1013 q 142 1044 174 1013 q 110 1131 110 1076 m 344 1131 q 377 1215 344 1183 q 458 1247 410 1247 q 538 1215 506 1247 q 571 1131 571 1183 q 539 1045 571 1078 q 458 1013 507 1013 q 376 1044 408 1013 q 344 1131 344 1076 m 367 188 q 426 218 406 188 q 447 303 447 249 l 447 972 l 703 972 l 708 321 q 618 71 710 163 q 372 -21 526 -21 q 122 72 217 -21 q 28 321 28 164 l 28 972 l 283 972 l 283 303 q 306 218 283 249 q 367 188 328 188 z "},"Ý":{"ha":822,"x_min":14,"x_max":753,"o":"m 296 1028 l 378 1235 l 618 1235 l 483 1028 l 296 1028 m 249 414 l 14 972 l 331 972 l 392 565 l 453 972 l 753 972 l 504 383 l 504 0 l 249 0 l 249 414 z "},"Þ":{"ha":861,"x_min":28,"x_max":833,"o":"m 431 144 q 538 213 499 144 q 578 389 578 281 q 538 565 578 497 q 431 633 499 633 q 324 565 363 633 q 285 389 285 497 q 324 213 285 281 q 431 144 363 144 m 285 -112 l 28 -112 l 28 875 l 285 875 l 285 538 q 380 681 310 625 q 540 736 450 736 q 746 640 658 736 q 833 389 833 543 q 744 138 833 233 q 522 42 654 42 q 375 97 442 42 q 285 240 308 153 l 285 -112 z "},"ß":{"ha":849,"x_min":28,"x_max":821,"o":"m 28 6 l 28 707 q 131 910 28 833 q 406 986 233 986 q 655 916 568 986 q 742 714 742 846 q 708 578 742 631 q 611 511 674 526 q 760 450 699 514 q 821 285 821 386 q 742 99 821 171 q 547 -6 664 26 q 314 -39 431 -39 l 314 181 q 490 206 414 181 q 567 303 567 232 q 517 376 567 356 q 365 397 468 397 l 315 397 l 315 576 l 350 576 q 455 613 418 576 q 492 708 492 649 q 464 791 492 761 q 388 821 436 821 q 311 791 339 821 q 283 708 283 761 l 283 6 l 28 6 z "},"à":{"ha":706,"x_min":28,"x_max":671,"o":"m 393 307 q 271 243 276 307 q 310 210 271 210 q 376 240 344 210 q 414 307 408 269 l 393 307 m 357 514 q 310 496 328 514 q 297 449 292 478 l 51 449 q 124 642 43 569 q 350 714 204 714 q 583 640 496 714 q 671 442 671 567 l 671 0 l 415 0 l 415 151 l 408 151 q 338 37 390 88 q 210 -14 286 -14 q 83 33 138 -14 q 28 172 28 81 q 116 349 28 285 q 361 413 204 413 l 415 413 l 415 433 q 357 514 415 514 m 282 769 l 147 976 l 388 976 l 469 769 l 282 769 z "},"á":{"ha":706,"x_min":28,"x_max":671,"o":"m 393 307 q 271 243 276 307 q 310 210 271 210 q 376 240 344 210 q 414 307 408 269 l 393 307 m 357 514 q 310 496 328 514 q 297 449 292 478 l 51 449 q 124 642 43 569 q 350 714 204 714 q 583 640 496 714 q 671 442 671 567 l 671 0 l 415 0 l 415 151 l 408 151 q 338 37 390 88 q 210 -14 286 -14 q 83 33 138 -14 q 28 172 28 81 q 116 349 28 285 q 361 413 204 413 l 415 413 l 415 433 q 357 514 415 514 m 449 769 l 261 769 l 343 976 l 583 976 l 449 769 z "},"â":{"ha":706,"x_min":28,"x_max":671,"o":"m 393 307 q 271 243 276 307 q 310 210 271 210 q 376 240 344 210 q 414 307 408 269 l 393 307 m 357 514 q 310 496 328 514 q 297 449 292 478 l 51 449 q 124 642 43 569 q 350 714 204 714 q 583 640 496 714 q 671 442 671 567 l 671 0 l 415 0 l 415 151 l 408 151 q 338 37 390 88 q 210 -14 286 -14 q 83 33 138 -14 q 28 172 28 81 q 116 349 28 285 q 361 413 204 413 l 415 413 l 415 433 q 357 514 415 514 m 540 739 l 390 739 l 365 786 l 342 739 l 192 739 l 300 951 l 432 951 l 540 739 z "},"ã":{"ha":706,"x_min":28,"x_max":671,"o":"m 393 307 q 271 243 276 307 q 310 210 271 210 q 376 240 344 210 q 414 307 408 269 l 393 307 m 357 514 q 310 496 328 514 q 297 449 292 478 l 51 449 q 124 642 43 569 q 350 714 204 714 q 583 640 496 714 q 671 442 671 567 l 671 0 l 415 0 l 415 151 l 408 151 q 338 37 390 88 q 210 -14 286 -14 q 83 33 138 -14 q 28 172 28 81 q 116 349 28 285 q 361 413 204 413 l 415 413 l 415 433 q 357 514 415 514 m 524 964 q 525 819 546 871 q 435 767 504 767 q 343 788 400 767 q 271 806 296 806 q 224 761 224 806 l 217 761 q 205 908 181 853 q 307 964 229 964 q 390 949 339 964 q 465 933 439 933 q 515 964 515 933 l 524 964 z "},"ä":{"ha":706,"x_min":28,"x_max":671,"o":"m 393 307 q 271 243 276 307 q 310 210 271 210 q 376 240 344 210 q 414 307 408 269 l 393 307 m 357 514 q 310 496 328 514 q 297 449 292 478 l 51 449 q 124 642 43 569 q 350 714 204 714 q 583 640 496 714 q 671 442 671 567 l 671 0 l 415 0 l 415 151 l 408 151 q 338 37 390 88 q 210 -14 286 -14 q 83 33 138 -14 q 28 172 28 81 q 116 349 28 285 q 361 413 204 413 l 415 413 l 415 433 q 357 514 415 514 m 135 874 q 167 958 135 926 q 249 990 200 990 q 328 958 296 990 q 361 874 361 926 q 329 788 361 821 q 249 756 297 756 q 167 788 199 756 q 135 874 135 819 m 369 874 q 402 958 369 926 q 483 990 435 990 q 563 958 531 990 q 596 874 596 926 q 564 788 596 821 q 483 756 532 756 q 401 788 433 756 q 369 874 369 819 z "},"å":{"ha":706,"x_min":28,"x_max":671,"o":"m 393 307 q 271 243 276 307 q 310 210 271 210 q 376 240 344 210 q 414 307 408 269 l 393 307 m 317 885 q 331 851 317 864 q 365 839 344 839 q 398 851 385 839 q 411 885 411 864 q 398 920 411 907 q 365 933 385 933 q 331 920 344 933 q 317 885 317 907 m 357 514 q 310 496 328 514 q 297 449 292 478 l 51 449 q 124 642 43 569 q 350 714 204 714 q 583 640 496 714 q 671 442 671 567 l 671 0 l 415 0 l 415 151 l 408 151 q 338 37 390 88 q 210 -14 286 -14 q 83 33 138 -14 q 28 172 28 81 q 116 349 28 285 q 361 413 204 413 l 415 413 l 415 433 q 357 514 415 514 m 246 885 q 281 970 246 938 q 365 1003 315 1003 q 449 970 415 1003 q 482 885 482 938 q 449 801 482 832 q 365 769 415 769 q 280 801 314 769 q 246 885 246 832 z "},"æ":{"ha":1154,"x_min":28,"x_max":1136,"o":"m 436 335 l 393 335 q 303 309 335 335 q 271 238 271 283 q 293 200 271 200 q 344 226 313 200 q 406 286 376 253 q 436 319 436 319 l 436 335 m 853 447 q 786 514 838 514 q 719 447 736 514 l 853 447 m 363 514 q 319 496 335 514 q 311 449 304 478 l 51 449 q 134 642 51 569 q 365 714 217 714 q 581 658 494 714 q 792 714 664 714 q 1042 625 949 714 q 1125 338 1135 536 l 713 338 l 713 285 q 734 205 713 231 q 788 179 756 179 q 843 209 824 179 q 857 282 863 239 l 1121 282 q 1031 62 1121 144 q 767 -21 942 -21 q 565 22 646 -21 q 436 153 485 64 l 436 165 l 429 165 q 355 40 411 93 q 215 -14 299 -14 q 83 33 139 -14 q 28 169 28 79 q 116 338 28 278 q 361 399 204 399 l 436 399 l 436 433 q 414 492 436 469 q 363 514 392 514 z "},"ç":{"ha":728,"x_min":28,"x_max":679,"o":"m 28 347 q 112 620 28 526 q 357 714 196 714 q 596 631 513 714 q 679 411 679 547 l 429 411 q 414 485 435 457 q 356 514 393 514 q 285 408 285 514 l 285 285 q 356 179 285 179 q 414 208 393 179 q 429 282 435 236 l 679 282 q 618 87 679 165 q 443 -12 557 8 l 399 -64 q 488 -90 453 -61 q 522 -171 522 -119 q 433 -293 522 -256 q 253 -331 344 -331 l 226 -331 l 226 -189 q 229 -189 226 -189 q 310 -161 310 -189 q 265 -137 310 -137 q 225 -142 250 -137 l 210 -96 l 292 -17 q 95 94 163 1 q 28 347 28 186 z "},"è":{"ha":733,"x_min":28,"x_max":715,"o":"m 432 447 q 365 514 415 514 q 299 447 315 514 l 432 447 m 292 338 l 292 285 q 313 205 292 231 q 367 179 335 179 q 422 209 403 179 q 436 282 442 239 l 700 282 q 615 63 700 146 q 374 -21 529 -21 q 118 76 208 -21 q 28 351 28 172 q 116 621 28 528 q 371 714 204 714 q 621 625 528 714 q 704 338 714 536 l 292 338 m 308 764 l 174 971 l 414 971 l 496 764 l 308 764 z "},"é":{"ha":733,"x_min":28,"x_max":715,"o":"m 432 447 q 365 514 415 514 q 299 447 315 514 l 432 447 m 292 338 l 292 285 q 313 205 292 231 q 367 179 335 179 q 422 209 403 179 q 436 282 442 239 l 700 282 q 615 63 700 146 q 374 -21 529 -21 q 118 76 208 -21 q 28 351 28 172 q 116 621 28 528 q 371 714 204 714 q 621 625 528 714 q 704 338 714 536 l 292 338 m 475 764 l 288 764 l 369 971 l 610 971 l 475 764 z "},"ê":{"ha":733,"x_min":28,"x_max":715,"o":"m 432 447 q 365 514 415 514 q 299 447 315 514 l 432 447 m 292 338 l 292 285 q 313 205 292 231 q 367 179 335 179 q 422 209 403 179 q 436 282 442 239 l 700 282 q 615 63 700 146 q 374 -21 529 -21 q 118 76 208 -21 q 28 351 28 172 q 116 621 28 528 q 371 714 204 714 q 621 625 528 714 q 704 338 714 536 l 292 338 m 567 733 l 417 733 l 392 781 l 368 733 l 218 733 l 326 946 l 458 946 l 567 733 z "},"ë":{"ha":733,"x_min":28,"x_max":715,"o":"m 432 447 q 365 514 415 514 q 299 447 315 514 l 432 447 m 292 338 l 292 285 q 313 205 292 231 q 367 179 335 179 q 422 209 403 179 q 436 282 442 239 l 700 282 q 615 63 700 146 q 374 -21 529 -21 q 118 76 208 -21 q 28 351 28 172 q 116 621 28 528 q 371 714 204 714 q 621 625 528 714 q 704 338 714 536 l 292 338 m 161 868 q 194 953 161 921 q 275 985 226 985 q 355 953 322 985 q 388 868 388 921 q 356 783 388 815 q 275 750 324 750 q 193 782 225 750 q 161 868 161 814 m 396 868 q 428 953 396 921 q 510 985 461 985 q 590 953 557 985 q 622 868 622 921 q 590 783 622 815 q 510 750 558 750 q 428 782 460 750 q 396 868 396 814 z "},"ì":{"ha":311,"x_min":-62,"x_max":283,"o":"m -62 956 l 178 956 l 260 749 l 72 749 l -62 956 m 283 0 l 28 0 l 28 693 l 283 693 l 283 0 z "},"í":{"ha":311,"x_min":28,"x_max":374,"o":"m 51 749 l 133 956 l 374 956 l 239 749 l 51 749 m 283 0 l 28 0 l 28 693 l 283 693 l 283 0 z "},"î":{"ha":311,"x_min":-18,"x_max":331,"o":"m 181 718 l 156 765 l 132 718 l -18 718 l 90 931 l 222 931 l 331 718 l 181 718 m 283 0 l 28 0 l 28 693 l 283 693 l 283 0 z "},"ï":{"ha":311,"x_min":-75,"x_max":386,"o":"m -75 853 q -42 938 -75 906 q 39 969 -10 969 q 119 938 86 969 q 151 853 151 906 q 119 767 151 800 q 39 735 88 735 q -43 767 -11 735 q -75 853 -75 799 m 160 853 q 192 938 160 906 q 274 969 225 969 q 353 938 321 969 q 386 853 386 906 q 354 767 386 800 q 274 735 322 735 q 192 767 224 735 q 160 853 160 799 m 283 0 l 28 0 l 28 693 l 283 693 l 283 0 z "},"ð":{"ha":789,"x_min":28,"x_max":761,"o":"m 390 206 q 482 241 446 206 q 518 336 518 276 q 484 428 518 393 q 393 464 450 464 q 301 428 336 464 q 267 335 267 393 q 300 242 267 278 q 390 206 333 206 m 163 979 q 397 938 288 979 q 589 819 507 897 l 719 856 l 719 789 l 638 767 q 761 400 761 614 q 660 92 761 206 q 386 -21 560 -21 q 125 78 222 -21 q 28 343 28 176 q 98 566 28 483 q 290 649 168 649 q 411 624 357 649 q 500 553 465 599 q 383 697 465 640 l 208 650 l 208 717 l 294 740 q 161 761 228 761 l 163 979 z "},"ñ":{"ha":688,"x_min":28,"x_max":660,"o":"m 539 956 q 540 810 561 863 q 450 758 519 758 q 358 779 415 758 q 286 797 311 797 q 239 753 239 797 l 232 753 q 220 900 196 844 q 322 956 244 956 q 406 940 354 956 q 481 925 454 925 q 531 956 531 925 l 539 956 m 283 504 q 356 651 299 596 q 494 707 413 707 q 616 653 572 707 q 660 490 660 599 l 660 0 l 404 0 l 404 381 q 390 455 404 428 q 347 482 375 482 q 302 456 321 482 q 283 381 283 429 l 283 0 l 28 0 l 28 693 l 283 693 l 283 504 z "},"ò":{"ha":732,"x_min":28,"x_max":704,"o":"m 140 960 l 381 960 l 463 753 l 275 753 l 140 960 m 365 -21 q 119 73 211 -21 q 28 351 28 167 q 119 624 28 535 q 365 714 210 714 q 613 624 521 714 q 704 351 704 535 q 612 73 704 167 q 365 -21 519 -21 m 367 179 q 440 351 440 179 q 422 476 440 438 q 367 514 403 514 q 310 476 329 514 q 292 351 292 439 q 310 220 292 261 q 367 179 329 179 z "},"ó":{"ha":732,"x_min":28,"x_max":704,"o":"m 254 753 l 336 960 l 576 960 l 442 753 l 254 753 m 365 -21 q 119 73 211 -21 q 28 351 28 167 q 119 624 28 535 q 365 714 210 714 q 613 624 521 714 q 704 351 704 535 q 612 73 704 167 q 365 -21 519 -21 m 367 179 q 440 351 440 179 q 422 476 440 438 q 367 514 403 514 q 310 476 329 514 q 292 351 292 439 q 310 220 292 261 q 367 179 329 179 z "},"ô":{"ha":732,"x_min":28,"x_max":704,"o":"m 367 179 q 440 351 440 179 q 422 476 440 438 q 367 514 403 514 q 310 476 329 514 q 292 351 292 439 q 310 220 292 261 q 367 179 329 179 m 365 -21 q 119 73 211 -21 q 28 351 28 167 q 119 624 28 535 q 365 714 210 714 q 613 624 521 714 q 704 351 704 535 q 612 73 704 167 q 365 -21 519 -21 m 533 722 l 383 722 l 358 769 l 335 722 l 185 722 l 293 935 l 425 935 l 533 722 z "},"õ":{"ha":732,"x_min":28,"x_max":704,"o":"m 367 179 q 440 351 440 179 q 422 476 440 438 q 367 514 403 514 q 310 476 329 514 q 292 351 292 439 q 310 220 292 261 q 367 179 329 179 m 365 -21 q 119 73 211 -21 q 28 351 28 167 q 119 624 28 535 q 365 714 210 714 q 613 624 521 714 q 704 351 704 535 q 612 73 704 167 q 365 -21 519 -21 m 517 947 q 518 802 539 854 q 428 750 497 750 q 336 771 393 750 q 264 789 289 789 q 217 744 217 789 l 210 744 q 198 892 174 836 q 300 947 222 947 q 383 932 332 947 q 458 917 432 917 q 508 947 508 917 l 517 947 z "},"ö":{"ha":732,"x_min":28,"x_max":704,"o":"m 128 857 q 160 942 128 910 q 242 974 193 974 q 322 942 289 974 q 354 857 354 910 q 322 772 354 804 q 242 739 290 739 q 160 771 192 739 q 128 857 128 803 m 363 857 q 395 942 363 910 q 476 974 428 974 q 556 942 524 974 q 589 857 589 910 q 557 772 589 804 q 476 739 525 739 q 394 771 426 739 q 363 857 363 803 m 365 -21 q 119 73 211 -21 q 28 351 28 167 q 119 624 28 535 q 365 714 210 714 q 613 624 521 714 q 704 351 704 535 q 612 73 704 167 q 365 -21 519 -21 m 367 179 q 440 351 440 179 q 422 476 440 438 q 367 514 403 514 q 310 476 329 514 q 292 351 292 439 q 310 220 292 261 q 367 179 329 179 z "},"÷":{"ha":679,"x_min":28,"x_max":651,"o":"m 221 590 q 255 668 221 639 q 339 697 289 697 q 422 668 389 697 q 456 590 456 639 q 422 512 456 542 q 339 482 389 482 q 253 511 286 482 q 221 590 221 540 m 28 410 l 651 410 l 651 282 l 28 282 l 28 410 m 460 100 q 423 -19 460 47 q 311 -151 386 -86 q 293 -118 292 -146 q 368 15 357 -47 q 349 4 364 10 q 317 -1 335 -1 q 249 26 275 -1 q 222 100 222 54 q 256 180 222 150 q 340 210 289 210 q 426 181 392 210 q 460 100 460 151 z "},"ø":{"ha":749,"x_min":28,"x_max":721,"o":"m 365 514 q 315 485 333 514 q 293 393 297 457 l 365 514 m 367 179 q 440 343 439 179 l 344 183 q 367 179 356 179 m 365 -21 q 235 0 294 -21 l 219 -26 l 42 -26 l 108 85 q 28 351 28 181 q 119 624 28 535 q 365 714 210 714 q 478 700 428 714 l 544 813 l 721 813 l 610 626 q 704 351 704 535 q 612 73 704 167 q 365 -21 519 -21 z "},"ù":{"ha":688,"x_min":28,"x_max":660,"o":"m 167 957 l 407 957 l 489 750 l 301 750 l 167 957 m 404 189 q 332 42 389 97 q 193 -14 275 -14 q 72 40 115 -14 q 28 203 28 94 l 28 693 l 283 693 l 283 313 q 298 238 283 265 q 340 211 313 211 q 385 238 367 211 q 404 313 404 264 l 404 693 l 660 693 l 660 0 l 404 0 l 404 189 z "},"ú":{"ha":688,"x_min":28,"x_max":660,"o":"m 281 750 l 363 957 l 603 957 l 468 750 l 281 750 m 404 189 q 332 42 389 97 q 193 -14 275 -14 q 72 40 115 -14 q 28 203 28 94 l 28 693 l 283 693 l 283 313 q 298 238 283 265 q 340 211 313 211 q 385 238 367 211 q 404 313 404 264 l 404 693 l 660 693 l 660 0 l 404 0 l 404 189 z "},"û":{"ha":688,"x_min":28,"x_max":660,"o":"m 410 719 l 385 767 l 361 719 l 211 719 l 319 932 l 451 932 l 560 719 l 410 719 m 404 189 q 332 42 389 97 q 193 -14 275 -14 q 72 40 115 -14 q 28 203 28 94 l 28 693 l 283 693 l 283 313 q 298 238 283 265 q 340 211 313 211 q 385 238 367 211 q 404 313 404 264 l 404 693 l 660 693 l 660 0 l 404 0 l 404 189 z "},"ü":{"ha":688,"x_min":28,"x_max":660,"o":"m 154 854 q 187 939 154 907 q 268 971 219 971 q 348 939 315 971 q 381 854 381 907 q 349 769 381 801 q 268 736 317 736 q 186 768 218 736 q 154 854 154 800 m 389 854 q 422 939 389 907 q 503 971 454 971 q 583 939 550 971 q 615 854 615 907 q 583 769 615 801 q 503 736 551 736 q 421 768 453 736 q 389 854 389 800 m 404 189 q 332 42 389 97 q 193 -14 275 -14 q 72 40 115 -14 q 28 203 28 94 l 28 693 l 283 693 l 283 313 q 298 238 283 265 q 340 211 313 211 q 385 238 367 211 q 404 313 404 264 l 404 693 l 660 693 l 660 0 l 404 0 l 404 189 z "},"ý":{"ha":749,"x_min":14,"x_max":707,"o":"m 336 749 l 418 956 l 658 956 l 524 749 l 336 749 m 363 100 q 363 129 363 110 q 368 288 363 242 l 426 693 l 707 693 l 481 26 q 339 -240 421 -161 q 111 -319 257 -319 l 111 -40 l 118 -40 q 170 -73 135 -61 q 247 -85 206 -85 q 392 0 358 -85 l 249 0 l 14 693 l 294 693 l 353 288 q 358 129 358 242 q 358 100 358 110 l 363 100 z "},"þ":{"ha":861,"x_min":28,"x_max":833,"o":"m 431 144 q 538 213 499 144 q 578 389 578 281 q 538 565 578 497 q 431 633 499 633 q 324 565 363 633 q 285 389 285 497 q 324 213 285 281 q 431 144 363 144 m 285 -210 l 28 -210 l 28 944 l 285 944 l 285 538 q 380 681 310 625 q 540 736 450 736 q 746 640 658 736 q 833 389 833 543 q 744 138 833 233 q 522 42 654 42 q 375 97 442 42 q 285 240 308 153 l 285 -210 z "},"ÿ":{"ha":749,"x_min":14,"x_max":707,"o":"m 210 853 q 242 938 210 906 q 324 969 275 969 q 403 938 371 969 q 436 853 436 906 q 404 767 436 800 q 324 735 372 735 q 242 767 274 735 q 210 853 210 799 m 444 853 q 477 938 444 906 q 558 969 510 969 q 638 938 606 969 q 671 853 671 906 q 639 767 671 800 q 558 735 607 735 q 476 767 508 735 q 444 853 444 799 m 363 100 q 363 129 363 110 q 368 288 363 242 l 426 693 l 707 693 l 481 26 q 339 -240 421 -161 q 111 -319 257 -319 l 111 -40 l 118 -40 q 170 -73 135 -61 q 247 -85 206 -85 q 392 0 358 -85 l 249 0 l 14 693 l 294 693 l 353 288 q 358 129 358 242 q 358 100 358 110 l 363 100 z "},"Đ":{"ha":792,"x_min":-42,"x_max":764,"o":"m 28 0 l 28 353 l -42 353 l -42 547 l 28 547 l 28 972 l 328 972 q 658 854 551 972 q 764 486 764 736 q 658 118 764 236 q 328 0 551 0 l 28 0 m 283 215 l 332 215 q 456 278 413 215 q 499 485 499 340 q 478 647 499 589 q 419 731 457 706 q 325 757 381 757 l 283 757 l 283 547 l 431 547 l 431 353 l 283 353 l 283 215 z "},"đ":{"ha":722,"x_min":28,"x_max":764,"o":"m 425 381 q 406 456 425 431 q 356 482 386 482 q 303 454 322 482 q 283 378 283 426 l 283 310 q 302 233 283 261 q 353 204 321 204 q 405 232 385 204 q 425 306 425 260 l 425 381 m 425 182 l 418 182 q 349 34 403 89 q 217 -21 294 -21 q 76 61 125 -21 q 28 297 28 143 l 28 385 q 75 626 28 546 q 214 707 122 707 q 348 652 293 707 q 418 504 403 597 l 425 504 l 425 794 l 249 794 l 249 932 l 425 932 l 425 972 l 681 972 l 681 932 l 764 932 l 764 794 l 681 794 l 681 0 l 425 0 l 425 182 z "},"ı":{"ha":311,"x_min":28,"x_max":283,"o":"m 283 0 l 28 0 l 28 693 l 283 693 l 283 0 z "},"Ł":{"ha":799,"x_min":28,"x_max":771,"o":"m 358 972 l 358 586 l 569 664 l 569 458 l 358 379 l 358 254 l 771 254 l 771 0 l 103 0 l 103 283 l 28 256 l 28 463 l 103 490 l 103 972 l 358 972 z "},"ł":{"ha":311,"x_min":-115,"x_max":426,"o":"m 283 611 l 426 664 l 426 458 l 283 404 l 283 0 l 28 0 l 28 310 l -115 256 l -115 463 l 28 515 l 28 972 l 283 972 l 283 611 z "},"Œ":{"ha":1246,"x_min":28,"x_max":1218,"o":"m 283 388 q 313 272 283 313 q 399 232 343 232 q 486 274 456 232 q 517 392 517 315 l 517 581 q 486 699 517 657 q 399 740 456 740 q 313 700 343 740 q 283 585 283 660 l 283 388 m 28 592 q 124 873 28 774 q 394 972 219 972 q 550 949 479 972 l 550 972 l 1218 972 l 1218 718 l 806 718 l 806 593 l 1164 593 l 1164 385 l 806 385 l 806 254 l 1204 254 l 1204 0 l 550 0 l 550 24 q 396 0 482 0 q 124 99 219 0 q 28 382 28 199 l 28 592 z "},"œ":{"ha":1150,"x_min":28,"x_max":1132,"o":"m 367 179 q 440 351 440 179 q 422 476 440 438 q 367 514 403 514 q 310 476 329 514 q 292 351 292 439 q 310 220 292 261 q 367 179 329 179 m 849 447 q 782 514 833 514 q 715 447 732 514 l 849 447 m 365 -21 q 119 73 211 -21 q 28 351 28 167 q 119 624 28 535 q 365 714 210 714 q 574 656 489 714 q 788 714 658 714 q 1038 625 944 714 q 1121 338 1131 536 l 708 338 l 708 285 q 730 205 708 231 q 783 179 751 179 q 839 209 819 179 q 853 282 858 239 l 1117 282 q 1031 63 1117 146 q 790 -21 946 -21 q 575 40 660 -21 q 365 -21 492 -21 z "},"Š":{"ha":776,"x_min":28,"x_max":749,"o":"m 421 1018 l 289 1018 l 181 1231 l 331 1231 l 354 1183 l 379 1231 l 529 1231 l 421 1018 m 493 294 q 385 407 493 379 l 310 426 q 307 428 308 426 q 174 473 231 447 q 72 555 117 499 q 28 706 28 611 q 124 917 28 840 q 389 993 219 993 q 729 664 729 993 l 488 664 q 481 756 506 722 q 397 789 456 789 q 326 770 353 789 q 299 719 299 751 q 325 669 299 689 q 404 636 351 649 l 471 619 q 683 511 618 583 q 749 313 749 439 q 654 67 749 153 q 386 -19 560 -19 q 115 76 203 -19 q 28 338 28 171 l 274 338 q 301 235 268 271 q 392 199 333 199 q 467 225 442 199 q 493 294 493 251 z "},"š":{"ha":681,"x_min":28,"x_max":653,"o":"m 407 774 l 275 774 l 167 986 l 317 986 l 340 939 l 365 986 l 515 986 l 407 774 m 344 -21 q 111 47 194 -21 q 28 239 28 114 l 264 239 q 287 178 264 201 q 350 154 310 154 q 392 165 376 154 q 407 194 408 175 q 381 227 406 217 q 281 253 356 238 l 226 264 q 92 332 150 279 q 35 482 35 385 q 113 649 35 589 q 331 708 190 708 q 560 641 479 708 q 640 449 640 574 l 404 449 q 392 509 410 486 q 339 532 374 532 q 297 518 313 532 q 282 486 282 504 q 297 460 282 469 q 340 444 311 451 l 432 421 q 651 203 650 364 q 570 40 653 100 q 344 -21 488 -21 z "},"Ÿ":{"ha":822,"x_min":14,"x_max":753,"o":"m 169 1132 q 202 1217 169 1185 q 283 1249 235 1249 q 363 1217 331 1249 q 396 1132 396 1185 q 364 1047 396 1079 q 283 1014 332 1014 q 201 1046 233 1014 q 169 1132 169 1078 m 404 1132 q 437 1217 404 1185 q 518 1249 469 1249 q 598 1217 565 1249 q 631 1132 631 1185 q 599 1047 631 1079 q 518 1014 567 1014 q 436 1046 468 1014 q 404 1132 404 1078 m 249 414 l 14 972 l 331 972 l 392 565 l 453 972 l 753 972 l 504 383 l 504 0 l 249 0 l 249 414 z "},"Ž":{"ha":760,"x_min":14,"x_max":718,"o":"m 446 1013 l 314 1013 l 206 1225 l 356 1225 l 379 1178 l 404 1225 l 554 1225 l 446 1013 m 411 719 l 14 719 l 14 975 l 717 975 l 717 719 l 344 254 l 718 254 l 718 0 l 14 0 l 14 254 l 411 719 z "},"ž":{"ha":667,"x_min":28,"x_max":639,"o":"m 393 736 l 261 736 l 153 949 l 303 949 l 326 901 l 351 949 l 501 949 l 393 736 m 28 242 l 304 451 l 35 451 l 35 693 l 628 693 l 628 451 l 385 242 l 639 242 l 639 0 l 28 0 l 28 242 z "},"ƒ":{"ha":692,"x_min":28,"x_max":664,"o":"m 169 -61 q 181 -108 167 -94 q 214 -122 196 -122 q 253 -50 253 -122 l 253 669 l 157 669 l 157 697 l 253 697 l 253 783 q 310 921 253 867 q 456 975 367 975 q 603 924 542 975 q 664 815 664 874 l 522 758 q 510 806 525 792 q 478 819 496 819 q 439 747 439 819 l 439 697 l 556 697 l 556 669 l 439 669 l 439 -86 q 382 -224 439 -169 q 236 -278 325 -278 q 89 -227 150 -278 q 28 -118 28 -176 l 169 -61 z "},"ˆ":{"ha":404,"x_min":28,"x_max":376,"o":"m 226 774 l 201 821 l 178 774 l 28 774 l 136 986 l 268 986 l 376 774 l 226 774 z "},"ˇ":{"ha":404,"x_min":28,"x_max":376,"o":"m 268 774 l 136 774 l 28 986 l 178 986 l 201 939 l 226 986 l 376 986 l 268 774 z "},"˘":{"ha":563,"x_min":28,"x_max":535,"o":"m 185 972 q 208 874 185 907 q 282 842 231 842 q 355 874 332 842 q 378 972 378 907 l 535 972 l 535 946 q 461 783 535 843 q 282 722 388 722 q 102 783 176 722 q 28 946 28 843 l 28 972 l 185 972 z "},"˙":{"ha":233,"x_min":28,"x_max":206,"o":"m 28 885 q 53 945 28 922 q 118 968 79 968 q 181 945 156 968 q 206 885 206 922 q 181 822 206 846 q 118 799 157 799 q 53 822 79 799 q 28 885 28 846 z "},"˚":{"ha":292,"x_min":28,"x_max":264,"o":"m 28 860 q 63 945 28 913 q 147 978 97 978 q 231 945 197 978 q 264 860 264 913 q 231 776 264 807 q 147 744 197 744 q 62 776 96 744 q 28 860 28 807 m 99 860 q 113 826 99 839 q 147 814 126 814 q 180 826 167 814 q 193 860 193 839 q 180 895 193 882 q 147 908 167 908 q 113 895 126 908 q 99 860 99 882 z "},"˛":{"ha":290,"x_min":28,"x_max":263,"o":"m 263 -314 q 28 -121 28 -303 q 88 47 28 -28 l 224 47 q 175 -37 192 -1 q 158 -114 158 -74 q 185 -178 158 -162 q 263 -194 211 -193 l 263 -314 z "},"˜":{"ha":397,"x_min":13,"x_max":381,"o":"m 357 1022 q 358 877 379 929 q 268 825 338 825 q 176 846 233 825 q 104 864 129 864 q 57 819 57 864 l 50 819 q 38 967 14 911 q 140 1022 63 1022 q 224 1007 172 1022 q 299 992 272 992 q 349 1022 349 992 l 357 1022 z "},"˝":{"ha":378,"x_min":28,"x_max":350,"o":"m 96 975 l 350 975 l 243 718 l 154 718 l 219 963 l 117 718 l 28 718 l 96 975 z "},"μ":{"ha":688,"x_min":28,"x_max":660,"o":"m 404 189 q 283 7 381 57 l 283 -262 l 28 -262 l 28 693 l 283 693 l 283 313 q 298 238 283 265 q 340 211 313 211 q 385 238 367 211 q 404 313 404 264 l 404 693 l 660 693 l 660 0 l 404 0 l 404 189 z "},"–":{"ha":597,"x_min":28,"x_max":569,"o":"m 28 463 l 569 664 l 569 458 l 28 256 l 28 463 z "},"—":{"ha":1028,"x_min":28,"x_max":1000,"o":"m 28 536 l 1000 536 l 1000 331 l 28 331 l 28 536 z "},"‘":{"ha":236,"x_min":28,"x_max":208,"o":"m 181 718 l 28 718 l 147 975 l 208 975 l 181 718 z "},"’":{"ha":236,"x_min":28,"x_max":208,"o":"m 56 975 l 208 975 l 89 718 l 28 718 l 56 975 z "},"‚":{"ha":246,"x_min":28,"x_max":218,"o":"m 38 51 l 218 51 l 117 -206 l 28 -206 l 38 51 z "},"“":{"ha":440,"x_min":28,"x_max":413,"o":"m 403 718 l 222 718 l 324 975 l 413 975 l 403 718 m 208 718 l 28 718 l 129 975 l 218 975 l 208 718 z "},"”":{"ha":440,"x_min":28,"x_max":413,"o":"m 38 975 l 218 975 l 117 718 l 28 718 l 38 975 m 232 975 l 413 975 l 311 718 l 222 718 l 232 975 z "},"„":{"ha":440,"x_min":28,"x_max":413,"o":"m 38 51 l 218 51 l 117 -206 l 28 -206 l 38 51 m 232 51 l 413 51 l 311 -206 l 222 -206 l 232 51 z "},"†":{"ha":601,"x_min":28,"x_max":574,"o":"m 225 596 l 28 596 l 28 739 l 225 739 l 225 972 l 375 972 l 375 739 l 574 739 l 574 596 l 375 596 l 375 -1 l 225 -1 l 225 596 z "},"‡":{"ha":601,"x_min":28,"x_max":574,"o":"m 225 400 l 28 400 l 28 543 l 225 543 l 225 596 l 28 596 l 28 739 l 225 739 l 225 972 l 375 972 l 375 739 l 574 739 l 574 596 l 375 596 l 375 543 l 574 543 l 574 400 l 375 400 l 375 -1 l 225 -1 l 225 400 z "},"•":{"ha":390,"x_min":28,"x_max":363,"o":"m 28 404 q 77 526 28 481 q 197 571 126 571 q 315 526 268 571 q 363 404 363 482 q 314 283 363 329 q 197 238 265 238 q 77 282 126 238 q 28 404 28 326 z "},"…":{"ha":843,"x_min":28,"x_max":815,"o":"m 28 103 q 62 181 28 151 q 146 210 96 210 q 229 181 196 210 q 263 103 263 151 q 229 24 263 54 q 146 -6 196 -6 q 60 24 93 -6 q 28 103 28 53 m 304 103 q 338 181 304 151 q 422 210 372 210 q 506 181 472 210 q 539 103 539 151 q 506 24 539 54 q 422 -6 472 -6 q 337 24 369 -6 q 304 103 304 53 m 581 103 q 615 181 581 151 q 699 210 649 210 q 782 181 749 210 q 815 103 815 151 q 782 24 815 54 q 699 -6 749 -6 q 613 24 646 -6 q 581 103 581 53 z "},"‰":{"ha":1725,"x_min":28,"x_max":1697,"o":"m 815 994 l 1076 994 l 371 -26 l 108 -26 l 815 994 m 261 993 q 428 928 361 993 q 494 756 494 864 q 428 582 494 647 q 261 517 361 517 q 94 582 161 517 q 28 756 28 647 q 94 928 28 864 q 261 993 161 993 m 203 756 q 219 689 203 714 q 261 664 235 664 q 303 689 286 664 q 319 756 319 714 q 303 821 319 796 q 261 846 286 846 q 219 822 235 846 q 203 756 203 797 m 950 476 q 1117 412 1050 476 q 1183 239 1183 347 q 1117 65 1183 131 q 950 0 1050 0 q 783 65 850 0 q 717 239 717 131 q 783 412 717 347 q 950 476 850 476 m 1464 476 q 1631 412 1564 476 q 1697 239 1697 347 q 1631 65 1697 131 q 1464 0 1564 0 q 1297 65 1364 0 q 1231 239 1231 131 q 1297 412 1231 347 q 1464 476 1364 476 m 892 239 q 908 172 892 197 q 950 147 924 147 q 992 172 975 147 q 1008 239 1008 197 q 992 304 1008 279 q 950 329 975 329 q 908 305 924 329 q 892 239 892 281 m 1406 239 q 1422 172 1406 197 q 1464 147 1438 147 q 1506 172 1489 147 q 1522 239 1522 197 q 1506 304 1522 279 q 1464 329 1489 329 q 1422 305 1438 329 q 1406 239 1406 281 z "},"‹":{"ha":482,"x_min":28,"x_max":454,"o":"m 28 349 l 260 694 l 454 694 l 222 349 l 454 1 l 260 1 l 28 349 z "},"›":{"ha":482,"x_min":28,"x_max":454,"o":"m 28 1 l 260 349 l 28 694 l 222 694 l 454 349 l 222 1 l 28 1 z "},"⁄":{"ha":704,"x_min":28,"x_max":676,"o":"m 431 994 l 676 994 l 275 -26 l 28 -26 l 431 994 z "},"€":{"ha":881,"x_min":28,"x_max":853,"o":"m 28 625 l 133 625 q 240 882 142 792 q 513 972 339 972 q 765 877 678 972 q 853 614 853 782 l 589 614 q 573 711 594 678 q 504 744 551 744 q 428 713 458 744 q 390 625 397 682 l 572 625 l 572 504 l 388 504 l 388 456 l 572 456 l 572 333 l 390 333 q 428 245 397 276 q 504 214 458 214 q 573 247 551 214 q 589 344 594 281 l 853 344 q 765 81 853 176 q 513 -14 678 -14 q 240 76 339 -14 q 133 333 142 167 l 28 333 l 28 456 l 132 456 l 132 504 l 28 504 l 28 625 z "},"™":{"ha":807,"x_min":7,"x_max":724,"o":"m 304 972 l 304 883 l 207 883 l 207 569 l 103 569 l 103 883 l 7 883 l 7 972 l 304 972 m 438 972 l 529 710 l 618 972 l 724 972 l 724 569 l 618 569 l 618 746 l 561 569 l 496 569 l 438 751 l 438 569 l 332 569 l 332 972 l 438 972 z "},"−":{"ha":622,"x_min":28,"x_max":594,"o":"m 28 447 l 594 447 l 594 333 l 28 333 l 28 447 z "},"ﬁ":{"ha":785,"x_min":28,"x_max":757,"o":"m 110 735 q 183 933 110 874 q 388 992 256 992 q 479 985 429 992 q 497 983 493 983 l 497 763 l 435 763 q 379 753 393 763 q 365 719 365 743 l 365 693 l 757 693 l 757 0 l 501 0 l 501 476 l 365 476 l 365 0 l 110 0 l 110 476 l 28 476 l 28 693 l 110 693 l 110 735 z "},"ﬂ":{"ha":815,"x_min":28,"x_max":757,"o":"m 110 735 q 190 931 110 876 q 442 986 269 986 q 660 978 503 986 q 757 972 725 974 l 757 0 l 501 0 l 501 763 l 454 763 q 384 753 403 763 q 365 719 365 743 l 365 693 l 482 693 l 482 476 l 365 476 l 365 0 l 110 0 l 110 476 l 28 476 l 28 693 l 110 693 l 110 735 z "}}}
